<svg width="166" height="32" viewBox="0 0 166 32" fill="none" xmlns="http://www.w3.org/2000/svg">
<path d="M37.4078 32H50.3256L18.3257 0H5.40784L37.4078 32Z" fill="white"/>
<path d="M24.9622 1.63716e-06L55.8095 30.8474V0H47.4617V9.73909L37.7225 0L24.9622 1.63716e-06Z" fill="white"/>
<path d="M0 1.07135V31.9999H8.34782V22.2608L18.0869 31.9999H30.9287L0 1.07135Z" fill="white"/>
<path d="M72.2705 9.85547L67.6299 24H63.8916L70.2314 6.9375H72.6104L72.2705 9.85547ZM76.126 24L71.4736 9.85547L71.0986 6.9375H73.501L79.876 24H76.126ZM75.915 17.6484V20.4023H66.9033V17.6484H75.915ZM84.6221 14.0859V24H81.2471V11.3203H84.4229L84.6221 14.0859ZM88.4424 11.2383L88.3838 14.3672C88.2197 14.3438 88.0205 14.3242 87.7861 14.3086C87.5596 14.2852 87.3525 14.2734 87.165 14.2734C86.6885 14.2734 86.2744 14.3359 85.9229 14.4609C85.5791 14.5781 85.29 14.7539 85.0557 14.9883C84.8291 15.2227 84.6572 15.5078 84.54 15.8438C84.4307 16.1797 84.3682 16.5625 84.3525 16.9922L83.6729 16.7812C83.6729 15.9609 83.7549 15.207 83.9189 14.5195C84.083 13.8242 84.3213 13.2188 84.6338 12.7031C84.9541 12.1875 85.3447 11.7891 85.8057 11.5078C86.2666 11.2266 86.7939 11.0859 87.3877 11.0859C87.5752 11.0859 87.7666 11.1016 87.9619 11.1328C88.1572 11.1562 88.3174 11.1914 88.4424 11.2383ZM96.833 11.3203V13.7109H89.4502V11.3203H96.833ZM91.2783 8.19141H94.6533V20.1797C94.6533 20.5469 94.7002 20.8281 94.7939 21.0234C94.8955 21.2188 95.0439 21.3555 95.2393 21.4336C95.4346 21.5039 95.6807 21.5391 95.9775 21.5391C96.1885 21.5391 96.376 21.5312 96.54 21.5156C96.7119 21.4922 96.8564 21.4688 96.9736 21.4453L96.9854 23.9297C96.6963 24.0234 96.3838 24.0977 96.0479 24.1523C95.7119 24.207 95.3408 24.2344 94.9346 24.2344C94.1924 24.2344 93.5439 24.1133 92.9893 23.8711C92.4424 23.6211 92.0205 23.2227 91.7236 22.6758C91.4268 22.1289 91.2783 21.4102 91.2783 20.5195V8.19141ZM105.118 20.4375L109.138 6.9375H113.052L107.11 24H104.532L105.118 20.4375ZM101.415 6.9375L105.423 20.4375L106.032 24H103.431L97.5244 6.9375H101.415ZM119.755 24.2344C118.771 24.2344 117.888 24.0781 117.106 23.7656C116.325 23.4453 115.661 23.0039 115.114 22.4414C114.575 21.8789 114.161 21.2266 113.872 20.4844C113.583 19.7344 113.438 18.9375 113.438 18.0938V17.625C113.438 16.6641 113.575 15.7852 113.849 14.9883C114.122 14.1914 114.513 13.5 115.021 12.9141C115.536 12.3281 116.161 11.8789 116.896 11.5664C117.63 11.2461 118.458 11.0859 119.38 11.0859C120.278 11.0859 121.075 11.2344 121.771 11.5312C122.466 11.8281 123.048 12.25 123.517 12.7969C123.993 13.3438 124.353 14 124.595 14.7656C124.837 15.5234 124.958 16.3672 124.958 17.2969V18.7031H114.88V16.4531H121.642V16.1953C121.642 15.7266 121.556 15.3086 121.384 14.9414C121.22 14.5664 120.97 14.2695 120.634 14.0508C120.298 13.832 119.868 13.7227 119.345 13.7227C118.899 13.7227 118.517 13.8203 118.196 14.0156C117.876 14.2109 117.614 14.4844 117.411 14.8359C117.216 15.1875 117.067 15.6016 116.966 16.0781C116.872 16.5469 116.825 17.0625 116.825 17.625V18.0938C116.825 18.6016 116.896 19.0703 117.036 19.5C117.185 19.9297 117.392 20.3008 117.657 20.6133C117.931 20.9258 118.259 21.168 118.642 21.3398C119.032 21.5117 119.474 21.5977 119.966 21.5977C120.575 21.5977 121.142 21.4805 121.665 21.2461C122.196 21.0039 122.653 20.6406 123.036 20.1562L124.677 21.9375C124.411 22.3203 124.048 22.6875 123.587 23.0391C123.134 23.3906 122.587 23.6797 121.946 23.9062C121.306 24.125 120.575 24.2344 119.755 24.2344ZM130.185 14.0273V24H126.81V11.3203H129.974L130.185 14.0273ZM129.692 17.2148H128.778C128.778 16.2773 128.899 15.4336 129.142 14.6836C129.384 13.9258 129.724 13.2812 130.161 12.75C130.599 12.2109 131.118 11.8008 131.72 11.5195C132.329 11.2305 133.009 11.0859 133.759 11.0859C134.353 11.0859 134.896 11.1719 135.388 11.3438C135.88 11.5156 136.302 11.7891 136.653 12.1641C137.013 12.5391 137.286 13.0352 137.474 13.6523C137.669 14.2695 137.767 15.0234 137.767 15.9141V24H134.368V15.9023C134.368 15.3398 134.29 14.9023 134.134 14.5898C133.978 14.2773 133.747 14.0586 133.442 13.9336C133.146 13.8008 132.778 13.7344 132.341 13.7344C131.888 13.7344 131.493 13.8242 131.157 14.0039C130.829 14.1836 130.556 14.4336 130.337 14.7539C130.126 15.0664 129.966 15.4336 129.856 15.8555C129.747 16.2773 129.692 16.7305 129.692 17.2148ZM147.833 20.9648V11.3203H151.208V24H148.032L147.833 20.9648ZM148.208 18.3633L149.204 18.3398C149.204 19.1836 149.106 19.9688 148.911 20.6953C148.716 21.4141 148.423 22.0391 148.032 22.5703C147.642 23.0938 147.149 23.5039 146.556 23.8008C145.962 24.0898 145.263 24.2344 144.458 24.2344C143.841 24.2344 143.271 24.1484 142.747 23.9766C142.231 23.7969 141.786 23.5195 141.411 23.1445C141.044 22.7617 140.755 22.2734 140.544 21.6797C140.341 21.0781 140.239 20.3555 140.239 19.5117V11.3203H143.614V19.5352C143.614 19.9102 143.657 20.2266 143.743 20.4844C143.837 20.7422 143.966 20.9531 144.13 21.1172C144.294 21.2812 144.485 21.3984 144.704 21.4688C144.931 21.5391 145.181 21.5742 145.454 21.5742C146.149 21.5742 146.696 21.4336 147.095 21.1523C147.501 20.8711 147.786 20.4883 147.95 20.0039C148.122 19.5117 148.208 18.9648 148.208 18.3633ZM159.622 24.2344C158.638 24.2344 157.755 24.0781 156.974 23.7656C156.192 23.4453 155.528 23.0039 154.981 22.4414C154.442 21.8789 154.028 21.2266 153.739 20.4844C153.45 19.7344 153.306 18.9375 153.306 18.0938V17.625C153.306 16.6641 153.442 15.7852 153.716 14.9883C153.989 14.1914 154.38 13.5 154.888 12.9141C155.403 12.3281 156.028 11.8789 156.763 11.5664C157.497 11.2461 158.325 11.0859 159.247 11.0859C160.146 11.0859 160.942 11.2344 161.638 11.5312C162.333 11.8281 162.915 12.25 163.384 12.7969C163.86 13.3438 164.22 14 164.462 14.7656C164.704 15.5234 164.825 16.3672 164.825 17.2969V18.7031H154.747V16.4531H161.509V16.1953C161.509 15.7266 161.423 15.3086 161.251 14.9414C161.087 14.5664 160.837 14.2695 160.501 14.0508C160.165 13.832 159.735 13.7227 159.212 13.7227C158.767 13.7227 158.384 13.8203 158.063 14.0156C157.743 14.2109 157.481 14.4844 157.278 14.8359C157.083 15.1875 156.935 15.6016 156.833 16.0781C156.739 16.5469 156.692 17.0625 156.692 17.625V18.0938C156.692 18.6016 156.763 19.0703 156.903 19.5C157.052 19.9297 157.259 20.3008 157.524 20.6133C157.798 20.9258 158.126 21.168 158.509 21.3398C158.899 21.5117 159.341 21.5977 159.833 21.5977C160.442 21.5977 161.009 21.4805 161.532 21.2461C162.063 21.0039 162.521 20.6406 162.903 20.1562L164.544 21.9375C164.278 22.3203 163.915 22.6875 163.454 23.0391C163.001 23.3906 162.454 23.6797 161.813 23.9062C161.173 24.125 160.442 24.2344 159.622 24.2344Z" fill="white"/>
</svg>
