<svg width="125" height="32" viewBox="0 0 125 32" fill="none" xmlns="http://www.w3.org/2000/svg">
<path fill-rule="evenodd" clip-rule="evenodd" d="M0 16.3482L0.001544 16.1879L0.00472794 16.0275L0.00956001 15.8671L0.016032 15.7067L0.02416 15.5463L0.0339279 15.3859L0.045352 15.2256L0.058416 15.0653L0.0731359 14.905L0.0895041 14.7448L0.10752 14.5848L0.127176 14.4248L0.148488 14.265L0.171448 14.1053L0.196048 13.9458L0.222296 13.7865L0.250192 13.6273L0.27972 13.4684L0.310896 13.3097L0.343712 13.1512L0.378168 12.993L0.414248 12.835L0.451976 12.6774L0.49132 12.5201L0.532304 12.3631L0.574904 12.2064L0.619136 12.0501L0.664984 11.8942L0.712448 11.7386L0.76152 11.5835L0.812208 11.4288L0.864504 11.2745L0.9184 11.1206L0.973888 10.9673L1.03098 10.8144L1.08965 10.662L1.14991 10.5102L1.21175 10.3588L1.27517 10.2081L1.34015 10.0578L1.4067 9.90816L1.47482 9.75912L1.54448 9.61072L1.6157 9.46288L1.68846 9.31568L1.76275 9.1692L1.83858 9.02336L1.91593 8.87816L1.99479 8.73376L2.07517 8.59L2.15706 8.44696L2.24043 8.30472L2.3253 8.1632L2.41166 8.02248L2.49949 7.88256L2.58878 7.74344L2.67954 7.6052L2.77176 7.46768L2.86542 7.33112L2.96051 7.19536L3.05703 7.06048L3.15497 6.92656L3.25432 6.79344L3.35507 6.66136L3.45722 6.53016L3.56075 6.39987L3.66566 6.27059L3.77193 6.14229L3.87955 6.01498L3.98853 5.88866L4.09884 5.76338L4.21047 5.63913L4.32342 5.51592L4.43769 5.39378L4.55324 5.2727L4.67008 5.15272L4.78819 5.03383L4.90757 4.91606L5.0282 4.79941L5.15007 4.6839L5.27318 4.56954L5.3975 4.45634L5.52302 4.34433L5.64975 4.2335L5.77766 4.12386L5.90674 4.01544L6.03698 3.90825L6.16838 3.80229L6.3009 3.69758L6.43456 3.59412L6.56928 3.49194L6.7052 3.39104L6.84216 3.29144L6.98016 3.19314L7.1192 3.09616L7.25936 3.0005L7.40048 2.90618L7.54264 2.81321L7.68584 2.72159L7.83008 2.63135L7.9752 2.54249L8.12136 2.45501L8.2684 2.36894L8.4164 2.28427L8.56536 2.20102L8.7152 2.11921L8.86592 2.03882L9.01752 1.9599L9.17 1.88242L9.32336 1.80641L9.47752 1.73187L9.63256 1.65882L9.78832 1.58726L9.94496 1.5172L10.1023 1.44865L10.2605 1.38162L10.4194 1.31611L10.579 1.25214L10.7393 1.1897L10.9003 1.12882L11.062 1.06948L11.2244 1.01172L11.3874 0.95552L11.5511 0.900896L11.7154 0.847864L11.8802 0.796416L12.0458 0.746568L12.2118 0.698328L12.3784 0.651696L12.5456 0.606672L12.7133 0.563272L12.8814 0.521504L13.0501 0.481376L13.2193 0.442872L13.3889 0.406024L13.5589 0.370816L13.7294 0.337264L13.9002 0.305376L14.0715 0.275144L14.2432 0.246584L14.4152 0.219696L14.5875 0.19448L14.7602 0.170952L14.9331 0.149104L15.1064 0.128944L15.2799 0.110464L15.4537 0.093696L15.6277 0.078616L15.8019 0.0652321L15.9763 0.0535601L16.9142 0L16.9678 4.51894L16.9984 4.51858L17.1279 4.5184L17.2574 4.51949L17.387 4.52185L17.5166 4.52549L17.6462 4.5304L17.7759 4.53658L17.9056 4.54404L18.0353 4.55278L18.1649 4.56279L18.2946 4.57409L18.4241 4.58666L18.5536 4.60052L18.683 4.61565L18.8123 4.63206L18.9415 4.64974L19.0706 4.6687L19.1996 4.68895L19.3285 4.71047L19.4571 4.73326L19.5857 4.75734L19.714 4.78268L19.8421 4.8093L19.9701 4.83719L20.0978 4.86635L20.2252 4.89678L20.3525 4.92847L20.4794 4.96144L20.6061 4.99566L20.7325 5.03115L20.8586 5.0679L20.9844 5.1059L21.1098 5.14515L21.235 5.18566L21.3598 5.22742L21.4842 5.27042L21.6082 5.31467L21.7318 5.36015L21.855 5.40688L21.9778 5.45483L22.1002 5.50402L22.2222 5.55444L22.3436 5.60607L22.4646 5.65893L22.5852 5.713L22.7052 5.76828L22.8247 5.82476L22.9438 5.88245L23.0622 5.94134L23.1802 6.00142L23.2975 6.06268L23.4143 6.12513L23.5306 6.18876L23.6462 6.25356L23.7612 6.31953L23.8756 6.38666L23.9894 6.45496L24.1025 6.5244L24.215 6.59496L24.3267 6.66672L24.4378 6.73952L24.5482 6.81352L24.658 6.88864L24.767 6.9648L24.8753 7.04216L24.9828 7.12056L25.0895 7.20008L25.1956 7.28072L25.3008 7.3624L25.4053 7.4452L25.5089 7.52896L25.6118 7.61384L25.7138 7.69984L25.815 7.7868L25.9154 7.8748L26.0149 7.96384L26.1134 8.05392L26.2112 8.14504L26.3081 8.23712L26.4041 8.33016L26.4991 8.42424L26.5933 8.51928L26.6865 8.61536L26.7788 8.71232L26.8701 8.81024L26.9605 8.90912L27.0498 9.00896L27.1382 9.10968L27.2257 9.21136L27.3121 9.31392L27.3975 9.41736L27.4819 9.52176L27.5653 9.62696L27.6476 9.73304L27.7289 9.84L27.8091 9.94784L27.8882 10.0565L27.9663 10.166L28.0433 10.2763L28.1192 10.3874L28.194 10.4993L28.2677 10.612L28.3402 10.7255L28.4116 10.8398L28.4819 10.9547L28.551 11.0705L28.619 11.187L28.6858 11.3042L28.7515 11.4221L28.816 11.5407L28.8793 11.66L28.9414 11.78L29.0022 11.9006L29.0619 12.0219L29.1204 12.1439L29.1777 12.2665L29.2337 12.3897L29.2885 12.5135L29.342 12.6379L29.3942 12.763L29.4453 12.8885L29.495 13.0146L29.5435 13.1413L29.5907 13.2686L29.6366 13.3962L29.6813 13.5246L29.7246 13.6533L29.7667 13.7826L29.8074 13.9122L29.8469 14.0424L29.885 14.173L29.9218 14.3041L29.9572 14.4356L29.9914 14.5675L30.0241 14.6998L30.0556 14.8325L30.0857 14.9655L30.1144 15.099L30.1418 15.2326L30.1678 15.3668L30.1925 15.5012L30.2158 15.6359L30.2378 15.7709L30.2583 15.9062L30.2775 16.0418L30.2953 16.1775L30.3117 16.3136L30.3267 16.4498L30.3403 16.5863L30.3526 16.723L30.3634 16.8598L30.3729 16.9969L30.3809 17.1341L30.3875 17.2714L30.3928 17.4089L30.3966 17.5464L30.399 17.6841L30.4 17.8218L30.3996 17.9597L30.3978 18.0976L30.3945 18.2356L30.3898 18.3735L30.3838 18.5115L30.3763 18.6495L30.3674 18.7875L30.357 18.9255L30.3453 19.0634L30.3321 19.2014L30.3175 19.3392L30.3014 19.4769L30.284 19.6146L30.2652 19.7521L30.2449 19.8895L30.2232 20.0268L30.2001 20.1639L30.1755 20.3009L30.1496 20.4377L30.1222 20.5743L30.0934 20.7107L30.0632 20.8469L30.0316 20.9829L29.9986 21.1186L29.9642 21.254L29.9283 21.3891L29.8911 21.524L29.8525 21.6586L29.8125 21.7928L29.771 21.9268L29.7282 22.0603L29.684 22.1936L29.6384 22.3264L29.5914 22.4589L29.543 22.591L29.4933 22.7226L29.4422 22.8538L29.3897 22.9846L29.3358 23.1149L29.2806 23.2447L29.2241 23.3742L29.1662 23.503L29.1069 23.6314L29.0462 23.7592L28.9843 23.8865L28.921 24.0133L28.8564 24.1394L28.7904 24.2651L28.7232 24.3901L28.6546 24.5146L28.5847 24.6383L28.5135 24.7615L28.441 24.8841L28.3673 25.0059L28.2922 25.1272L28.2158 25.2477L28.1382 25.3675L28.0594 25.4866L27.9793 25.605L27.8979 25.7227L27.8153 25.8397L27.7314 25.9558L27.6463 26.0713L27.56 26.1859L27.4725 26.2998L27.3838 26.4127L27.2938 26.525L27.2027 26.6363L27.1104 26.7468L27.0169 26.8565L26.9222 26.9653L26.8264 27.0732L26.7294 27.1802L26.6314 27.2864L26.5322 27.3916L26.4318 27.4959L26.3303 27.5992L26.2277 27.7016L26.124 27.803L26.0193 27.9035L25.9134 28.003L25.8066 28.1015L25.6986 28.199L25.5895 28.2954L25.4795 28.3909L25.3684 28.4854L25.2563 28.5787L25.1432 28.671L25.0291 28.7622L24.914 28.8524L24.7979 28.9414L24.6809 29.0294L24.5629 29.1162L24.444 29.202L24.3241 29.2866L24.2033 29.3701L24.0816 29.4524L23.959 29.5335L23.8355 29.6135L23.7112 29.6924L23.586 29.77L23.4599 29.8465L23.333 29.9217L23.2052 29.9958L23.0767 30.0686L22.9473 30.1401L22.8172 30.2105L22.6862 30.2795L22.5546 30.3474L22.4221 30.414L22.2889 30.4793L22.155 30.5433L22.0203 30.6061L21.885 30.6675L21.749 30.7277L21.6122 30.7865L21.4749 30.844L21.3369 30.9002L21.1982 30.9551L21.059 31.0086L20.919 31.0609L20.7786 31.1117L20.6374 31.1612L20.4958 31.2093L20.3537 31.2561L20.2109 31.3014L20.0676 31.3454L19.9238 31.3881L19.7796 31.4293L19.6348 31.4691L19.4896 31.5076L19.3438 31.5446L19.1978 31.5802L19.0512 31.6144L18.9042 31.6471L18.7568 31.6785L18.609 31.7084L18.4609 31.7369L18.3124 31.7639L18.1636 31.7894L18.0144 31.8136L17.865 31.8363L17.7151 31.8575L17.5651 31.8773L17.4148 31.8956L17.2642 31.9124L17.1134 31.9278L16.9623 31.9417L16.8111 31.9541L16.6597 31.965L16.5081 31.9745L16.3562 31.9825L16.2043 31.989L16.0523 31.9939L15.9001 31.9974L15.7478 31.9994L15.5954 32L15.443 31.999L15.2906 31.9966L15.138 31.9926L14.9854 31.9871L14.8329 31.9802L14.6803 31.9718L14.5278 31.9618L14.3753 31.9503L14.2229 31.9374L14.0705 31.9229L13.9182 31.907L13.766 31.8895L13.6139 31.8706L13.4619 31.8501L13.3102 31.8281L13.1585 31.8046L13.007 31.7797L12.8558 31.7533L12.7046 31.7253L12.5538 31.6958L12.4032 31.665L12.2529 31.6325L12.1027 31.5986L11.953 31.5632L11.8034 31.5263L11.6542 31.4879L11.5054 31.4481L11.3569 31.4068L11.2087 31.364L11.0609 31.3198L10.9135 31.274L10.7666 31.2268L10.62 31.1782L10.4738 31.128L10.3282 31.0764L10.183 31.0234L10.0382 30.969L9.894 30.913L9.75032 30.8557L9.60712 30.7969L9.46448 30.7366L9.3224 30.675L9.18088 30.612L9.03992 30.5475L8.8996 30.4816L8.75992 30.4143L8.62088 30.3456L8.4824 30.2755L8.34464 30.2041L8.2076 30.1312L8.07112 30.057L7.93544 29.9814L7.80048 29.9045L7.66624 29.8262L7.53272 29.7465L7.4 29.6655L7.268 29.5831L7.1368 29.4995L7.00648 29.4145L6.87688 29.3282L6.74816 29.2406L6.62032 29.1517L6.49328 29.0615L6.36713 28.97L6.24186 28.8773L6.1175 28.7832L5.99405 28.6879L5.87152 28.5914L5.74993 28.4936L5.6293 28.3946L5.50962 28.2944L5.39093 28.193L5.27322 28.0903L5.15653 27.9864L5.04085 27.8814L4.9262 27.7752L4.81258 27.6678L4.70003 27.5593L4.58854 27.4495L4.47813 27.3387L4.36881 27.2268L4.26059 27.1137L4.15349 26.9995L4.04751 26.8842L3.94268 26.7678L3.83899 26.6504L3.73646 26.5319L3.63511 26.4123L3.53494 26.2918L3.43598 26.1701L3.33821 26.0474L3.24166 25.9238L3.14634 25.7991L3.05226 25.6734L2.95943 25.5468L2.86786 25.4192L2.77756 25.2906L2.68854 25.1612L2.60082 25.0308L2.51439 24.8994L2.42928 24.7673L2.34548 24.6342L2.26302 24.5002L2.1819 24.3654L2.10212 24.2296L2.02371 24.0931L1.94666 23.9558L1.87099 23.8176L1.79671 23.6786L1.72382 23.5388L1.65234 23.3983L1.58226 23.257L1.51361 23.115L1.44638 22.9722L1.38059 22.8288L1.31625 22.6846L1.25335 22.5398L1.19192 22.3942L1.13196 22.248L1.07346 22.1011L1.01646 21.9536L0.960944 21.8055L0.90692 21.6568L0.8544 21.5075L0.803384 21.3577L0.753888 21.2072L0.70592 21.0562L0.659472 20.9047L0.614568 20.7527L0.5712 20.6002L0.529376 20.4471L0.489104 20.2937L0.450392 20.1398L0.41324 19.9854L0.377664 19.8306L0.343656 19.6753L0.311224 19.5197L0.280376 19.3637L0.251112 19.2074L0.22344 19.0506L0.197368 18.8936L0.172888 18.7362L0.150016 18.5786L0.128752 18.4206L0.109104 18.2623L0.0910641 18.1038L0.0746401 17.9451L0.05984 17.7862L0.046664 17.627L0.035112 17.4677L0.0251921 17.3082L0.0169041 17.1485L0.010248 16.9886L0.00522404 16.8287L0.00184002 16.6686L0.000103951 16.5085L0 16.3482ZM15.5025 4.61359L15.466 1.53343L15.4314 1.53678L15.2723 1.5537L15.1137 1.57217L14.9551 1.5922L14.7972 1.61372L14.6394 1.63681L14.4818 1.66144L14.3247 1.68758L14.1678 1.71529L14.0116 1.74443L13.8552 1.77521L13.6999 1.80737L13.5444 1.84115L13.3897 1.87637L13.2351 1.91315L13.0813 1.95134L12.9278 1.99107L12.7748 2.03228L12.6222 2.07498L12.4704 2.1191L12.3188 2.16475L12.168 2.21182L12.0176 2.26038L11.868 2.31028L11.7186 2.36176L11.5701 2.41462L11.4222 2.46887L11.2748 2.52461L11.1282 2.5817L10.9823 2.64018L10.8369 2.70015L10.6922 2.76149L10.5482 2.82422L10.405 2.88828L10.2625 2.95373L10.1208 3.0205L9.9796 3.08874L9.83944 3.15822L9.7 3.22906L9.56136 3.30124L9.42352 3.37475L9.28664 3.44952L9.15032 3.52567L9.01488 3.60314L8.88064 3.68172L8.7468 3.76183L8.61424 3.84301L8.48256 3.92545L8.35152 4.00924L8.22152 4.09426L8.09248 4.18051L7.96464 4.26778L7.83728 4.3566L7.7112 4.44637L7.58608 4.53738L7.46184 4.62963L7.33872 4.72298L7.21672 4.81746L7.09544 4.91326L6.97552 5.00997L6.85648 5.10795L6.73856 5.207L6.62168 5.3072L6.506 5.40836L6.39118 5.5108L6.27768 5.61415L6.16514 5.7187L6.05391 5.82412L5.9437 5.93069L5.8347 6.03822L5.72682 6.14681L5.61999 6.25652L5.51456 6.36698L5.41031 6.4784L5.30699 6.59112L5.2051 6.70456L5.10446 6.8188L5.00486 6.93424L4.9067 7.0504L4.80962 7.1676L4.71386 7.2856L4.61934 7.40456L4.52606 7.52432L4.43416 7.64488L4.34346 7.76632L4.254 7.88872L4.16598 8.01168L4.07914 8.13568L3.99369 8.26032L3.90955 8.38576L3.82668 8.512L3.74521 8.63896L3.66507 8.76656L3.58628 8.89496L3.5089 9.024L3.43278 9.15384L3.35804 9.2844L3.28477 9.41544L3.21281 9.5472L3.14222 9.67968L3.07307 9.81272L3.00528 9.9464L2.93894 10.0806L2.87399 10.2154L2.81047 10.3507L2.74834 10.4867L2.68767 10.6231L2.62838 10.7602L2.57054 10.8977L2.51418 11.0356L2.45923 11.1741L2.40572 11.313L2.35368 11.4524L2.30308 11.5922L2.25398 11.7324L2.20629 11.8731L2.16008 12.0142L2.11535 12.1556L2.0721 12.2973L2.0303 12.4395L1.99 12.5819L1.95118 12.7247L1.91382 12.8678L1.87796 13.0112L1.84359 13.1548L1.81071 13.2987L1.77932 13.4429L1.74942 13.5873L1.72102 13.7318L1.69411 13.8766L1.6687 14.0216L1.64479 14.1668L1.62238 14.3121L1.60147 14.4575L1.58206 14.6031L1.56415 14.7488L1.54774 14.8946L1.53284 15.0405L1.51944 15.1864L1.50754 15.3323L1.49714 15.4784L1.48824 15.6245L1.48084 15.7705L1.47494 15.9166L1.47054 16.0626L1.46765 16.2086L1.46624 16.3545L1.46634 16.5004L1.46792 16.6462L1.471 16.7919L1.47557 16.9375L1.48162 17.083L1.48918 17.2283L1.4982 17.3734L1.50871 17.5185L1.5207 17.6633L1.53418 17.8079L1.54911 17.9524L1.56553 18.0966L1.58341 18.2406L1.60275 18.3842L1.62356 18.5277L1.64583 18.6709L1.66954 18.8137L1.69472 18.9562L1.72134 19.0985L1.74939 19.2403L1.77889 19.3819L1.80982 19.523L1.84218 19.6638L1.87596 19.8042L1.91116 19.9442L1.94778 20.0838L1.9858 20.2229L2.02524 20.3616L2.06607 20.4998L2.1083 20.6376L2.15191 20.7749L2.1969 20.9116L2.24326 21.0478L2.29101 21.1835L2.34011 21.3187L2.39056 21.4533L2.44239 21.5874L2.49554 21.7208L2.55002 21.8537L2.60586 21.9859L2.663 22.1175L2.72147 22.2486L2.78125 22.379L2.84233 22.5086L2.9047 22.6377L2.96836 22.766L3.0333 22.8937L3.09951 23.0206L3.16698 23.1469L3.23572 23.2724L3.3057 23.3971L3.37691 23.5211L3.44936 23.6444L3.52304 23.7668L3.5979 23.8885L3.67401 24.0094L3.75128 24.1294L3.82976 24.2486L3.90942 24.367L3.99022 24.4846L4.07219 24.6013L4.15534 24.7171L4.23959 24.8321L4.32501 24.9462L4.4115 25.0593L4.49916 25.1715L4.58786 25.2828L4.67769 25.3932L4.76862 25.5027L4.86056 25.6112L4.9536 25.7187L5.04767 25.8253L5.14282 25.9309L5.23896 26.0354L5.3361 26.139L5.43428 26.2416L5.53344 26.3432L5.63362 26.4438L5.73474 26.5432L5.83685 26.6417L5.93987 26.739L6.04385 26.8354L6.14878 26.9307L6.25462 27.0249L6.3613 27.1179L6.46896 27.2099L6.57752 27.3008L6.6868 27.3906L6.79712 27.4793L6.90816 27.5667L7.02008 27.6531L7.1328 27.7384L7.2464 27.8225L7.36072 27.9054L7.47584 27.9871L7.59168 28.0677L7.7084 28.1471L7.82576 28.2253L7.944 28.3023L8.0628 28.3782L8.1824 28.4527L8.30272 28.5262L8.4236 28.5983L8.54528 28.6693L8.66752 28.739L8.79048 28.8074L8.914 28.8746L9.03824 28.9406L9.16296 29.0054L9.28832 29.0689L9.41432 29.131L9.54088 29.192L9.66792 29.2517L9.79552 29.3101L9.9236 29.3671L10.0523 29.423L10.1814 29.4774L10.3111 29.5307L10.4412 29.5826L10.5718 29.6332L10.7028 29.6826L10.8342 29.7306L10.966 29.7772L11.0983 29.8226L11.231 29.8666L11.364 29.9094L11.4973 29.9507L11.6311 29.9908L11.7651 30.0295L11.8995 30.0669L12.0342 30.103L12.1692 30.1377L12.3045 30.171L12.4399 30.203L12.5758 30.2338L12.7118 30.263L12.8479 30.291L12.9844 30.3177L13.121 30.343L13.2578 30.3669L13.3948 30.3894L13.5319 30.4106L13.6692 30.4305L13.8066 30.449L13.9441 30.4662L14.0817 30.4819L14.2194 30.4963L14.3571 30.5094L14.495 30.5211L14.6328 30.5315L14.7706 30.5405L14.9086 30.5482L15.0464 30.5544L15.1842 30.5594L15.3221 30.563L15.4599 30.5651L15.5976 30.566L15.7353 30.5655L15.8729 30.5637L16.0103 30.5606L16.1477 30.556L16.285 30.5502L16.4221 30.543L16.559 30.5344L16.6958 30.5246L16.8324 30.5134L16.9688 30.5008L17.105 30.4869L17.241 30.4717L17.3766 30.4552L17.5122 30.4374L17.6474 30.4182L17.7823 30.3977L17.917 30.3759L18.0514 30.3528L18.1854 30.3284L18.3191 30.3027L18.4525 30.2758L18.5855 30.2474L18.7182 30.2179L18.8504 30.187L18.9823 30.1549L19.1138 30.1215L19.2448 30.0868L19.3754 30.0509L19.5056 30.0137L19.6353 29.9752L19.7646 29.9355L19.8933 29.8946L20.0216 29.8524L20.1494 29.809L20.2765 29.7644L20.4033 29.7185L20.5294 29.6714L20.655 29.6231L20.7801 29.5737L20.9045 29.523L21.0283 29.4711L21.1516 29.4181L21.2742 29.3638L21.3962 29.3085L21.5176 29.2519L21.6383 29.1942L21.7583 29.1354L21.8778 29.0753L21.9964 29.0142L22.1144 28.9519L22.2318 28.8885L22.3482 28.824L22.4641 28.7584L22.5791 28.6918L22.6936 28.6239L22.807 28.5551L22.92 28.4851L23.0319 28.4142L23.1431 28.3421L23.2536 28.269L23.3633 28.1947L23.4719 28.1197L23.5798 28.0434L23.687 27.9662L23.7932 27.8881L23.8986 27.8088L24.003 27.7287L24.1068 27.6474L24.2094 27.5654L24.3112 27.4823L24.4122 27.3982L24.5122 27.3132L24.6112 27.2274L24.7094 27.1405L24.8065 27.0528L24.9027 26.9642L24.998 26.8746L25.0922 26.7843L25.1855 26.693L25.2778 26.6008L25.3691 26.5078L25.4594 26.414L25.5486 26.3194L25.6368 26.2241L25.7242 26.1276L25.8102 26.0306L25.8954 25.9327L25.9794 25.8342L26.0625 25.7347L26.1444 25.6346L26.2252 25.5338L26.305 25.4321L26.3837 25.3298L26.4614 25.2267L26.5378 25.123L26.6132 25.0186L26.6876 24.9134L26.7606 24.8078L26.8326 24.7013L26.9034 24.5943L26.9732 24.4866L27.0419 24.3782L27.1093 24.2694L27.1755 24.1599L27.2407 24.0496L27.3046 23.9391L27.3674 23.8278L27.429 23.716L27.4894 23.6038L27.5486 23.4909L27.6067 23.3774L27.6634 23.2639L27.7191 23.1494L27.7736 23.0346L27.8268 22.9194L27.8788 22.8037L27.9296 22.6875L27.9791 22.571L28.0275 22.4539L28.0746 22.3365L28.1205 22.219L28.1651 22.1006L28.2085 21.9822L28.2507 21.8632L28.2917 21.744L28.3314 21.6244L28.3697 21.5048L28.407 21.3843L28.4428 21.264L28.4774 21.1433L28.5109 21.0224L28.543 20.901L28.5738 20.7797L28.6035 20.6579L28.6318 20.5359L28.659 20.4138L28.6848 20.2914L28.7093 20.1691L28.7326 20.0462L28.7546 19.9237L28.7753 19.8006L28.7947 19.6775L28.8129 19.5544L28.8298 19.431L28.8454 19.3078L28.8598 19.1841L28.8729 19.0608L28.8847 18.9371L28.8952 18.8137L28.9045 18.6898L28.9125 18.5665L28.9192 18.4427L28.9246 18.3189L28.9288 18.1954L28.9318 18.0721L28.9334 17.9483L28.9338 17.8248L28.9329 17.7014L28.9307 17.5782L28.9273 17.4549L28.9226 17.3321L28.9166 17.2088L28.9094 17.0861L28.901 16.9634L28.8913 16.841L28.8803 16.7185L28.8682 16.5965L28.8547 16.4744L28.84 16.3527L28.8241 16.2311L28.807 16.1099L28.7885 15.9886L28.7689 15.8679L28.7481 15.7476L28.726 15.6272L28.7026 15.5072L28.6782 15.3877L28.6524 15.2681L28.6256 15.1494L28.5974 15.0305L28.5682 14.9124L28.5375 14.7942L28.5058 14.6768L28.473 14.5596L28.4389 14.4426L28.4037 14.3264L28.3673 14.2106L28.3296 14.0948L28.291 13.9799L28.251 13.8651L28.21 13.751L28.1678 13.6372L28.1245 13.5242L28.0799 13.4113L28.0343 13.299L27.9877 13.1875L27.9399 13.0765L27.8908 12.9656L27.841 12.8558L27.7897 12.746L27.7375 12.6373L27.6842 12.529L27.6298 12.421L27.5744 12.314L27.5178 12.2074L27.4602 12.1014L27.4018 11.9963L27.342 11.8915L27.2814 11.7876L27.2195 11.6842L27.157 11.5818L27.093 11.4796L27.0284 11.3784L26.9626 11.2777L26.8958 11.1778L26.8282 11.0789L26.7594 10.9803L26.6898 10.8826L26.6192 10.7857L26.5476 10.6896L26.4751 10.5941L26.4017 10.4995L26.3274 10.4056L26.2521 10.3126L26.1759 10.2203L26.0988 10.1288L26.0208 10.0382L25.942 9.94832L25.8624 9.85936L25.7818 9.7712L25.7002 9.68376L25.6182 9.59752L25.5349 9.51176L25.4511 9.4272L25.3664 9.34328L25.281 9.2604L25.1944 9.17816L25.1075 9.0972L25.0195 9.01688L24.9308 8.93752L24.8416 8.8592L24.7515 8.78176L24.6604 8.70504L24.5688 8.62944L24.4766 8.5548L24.3835 8.48112L24.2898 8.40832L24.1955 8.33672L24.1002 8.26568L24.0046 8.196L23.9082 8.1272L23.8111 8.05928L23.7136 7.99248L23.615 7.92648L23.5165 7.86184L23.4168 7.79792L23.3168 7.73512L23.216 7.67328L23.1148 7.61248L23.013 7.5528L22.9109 7.49424L22.8078 7.4364L22.7046 7.37992L22.6006 7.32432L22.4962 7.26984L22.3914 7.21648L22.286 7.16408L22.1802 7.11272L22.0739 7.06256L21.9671 7.01336L21.8601 6.96536L21.7525 6.91832L21.641 6.87096L21.5362 6.82768L21.4272 6.78384L21.3183 6.74136L21.2086 6.69968L21.0988 6.65936L20.9886 6.62L20.8781 6.58184L20.7671 6.54464L20.6561 6.50872L20.5446 6.47384L20.4328 6.44008L20.321 6.40752L20.2086 6.37597L20.0959 6.3455L19.9834 6.31628L19.8706 6.28817L19.757 6.26109L19.6439 6.23526L19.5302 6.21046L19.4166 6.18686L19.3025 6.16433L19.1886 6.14298L19.0743 6.12274L18.9602 6.10368L18.8454 6.08568L18.731 6.06887L18.6164 6.05318L18.5016 6.03861L18.3868 6.02518L18.272 6.01291L18.1571 6.00176L18.0422 5.99174L17.9271 5.98286L17.812 5.9751L17.6972 5.96849L17.5823 5.96301L17.467 5.95865L17.3524 5.95543L17.2375 5.95334L17.1227 5.95238L17.0078 5.95254L16.9847 5.9528L17.021 9.01056L17.0862 9.01024L17.1701 9.01072L17.254 9.012L17.338 9.01416L17.4221 9.01712L17.5062 9.02096L17.5902 9.0256L17.6744 9.03104L17.7586 9.03736L17.8427 9.04448L17.9269 9.05248L18.011 9.06128L18.0951 9.07096L18.1792 9.08144L18.2632 9.09272L18.3472 9.10496L18.4311 9.11792L18.515 9.13176L18.5988 9.14648L18.6825 9.162L18.7661 9.1784L18.8496 9.1956L18.933 9.2136L19.0163 9.23248L19.0994 9.25224L19.1825 9.2728L19.2653 9.29416L19.348 9.3164L19.4306 9.33944L19.513 9.36336L19.5952 9.38808L19.6772 9.4136L19.759 9.44L19.8406 9.4672L19.922 9.49528L20.0031 9.52416L20.0841 9.55384L20.1647 9.58432L20.2452 9.61568L20.3254 9.64784L20.4053 9.6808L20.4849 9.71464L20.5642 9.7492L20.6433 9.78464L20.722 9.8208L20.8004 9.85784L20.8786 9.89568L20.9563 9.93432L21.0338 9.97376L21.1109 10.014L21.1876 10.055L21.264 10.0968L21.34 10.1394L21.4156 10.1827L21.4909 10.2269L21.5658 10.2718L21.6402 10.3175L21.7142 10.364L21.7878 10.4113L21.861 10.4593L21.9337 10.508L22.006 10.5575L22.0778 10.6078L22.1492 10.6588L22.2201 10.7106L22.2905 10.7631L22.3605 10.8163L22.4298 10.8703L22.4988 10.925L22.5672 10.9804L22.6351 11.0366L22.7025 11.0934L22.7694 11.151L22.8357 11.2092L22.9014 11.2682L22.9666 11.3278L23.0312 11.3882L23.0953 11.4492L23.1587 11.5109L23.2216 11.5733L23.2839 11.6363L23.3456 11.7001L23.4067 11.7644L23.4671 11.8294L23.527 11.8951L23.5862 11.9614L23.6447 12.0283L23.7026 12.0959L23.7599 12.1641L23.8166 12.2329L23.8725 12.3023L23.9278 12.3723L23.9823 12.443L24.0362 12.5142L24.0894 12.586L24.1419 12.6583L24.1938 12.7313L24.2448 12.8048L24.2952 12.8789L24.3448 12.9535L24.3937 13.0286L24.4418 13.1044L24.4893 13.1806L24.536 13.2574L24.5819 13.3346L24.627 13.4125L24.6714 13.4907L24.715 13.5695L24.7578 13.6488L24.7999 13.7286L24.8412 13.8088L24.8816 13.8895L24.9213 13.9707L24.9602 14.0523L24.9982 14.1343L25.0354 14.2169L25.0718 14.2998L25.1074 14.3831L25.1421 14.4669L25.176 14.551L25.209 14.6356L25.2412 14.7205L25.2726 14.8058L25.303 14.8915L25.3327 14.9776L25.3615 15.064L25.3894 15.1508L25.4164 15.2378L25.4426 15.3253L25.4678 15.413L25.4922 15.5011L25.5157 15.5895L25.5383 15.6782L25.56 15.7671L25.5808 15.8563L25.6007 15.9458L25.6197 16.0356L25.6378 16.1256L25.6549 16.2158L25.6711 16.3064L25.6865 16.3971L25.7009 16.488L25.7143 16.5792L25.7269 16.6705L25.7385 16.762L25.7492 16.8538L25.7589 16.9457L25.7677 17.0377L25.7756 17.1299L25.7825 17.2222L25.7885 17.3147L25.7934 17.4073L25.7975 17.5L25.8006 17.5929L25.8028 17.6858L25.804 17.7788L25.8042 17.8719L25.8035 17.965L25.8018 18.0582L25.7992 18.1515L25.7956 18.2449L25.791 18.3382L25.7855 18.4315L25.779 18.525L25.7716 18.6183L25.7631 18.7117L25.7538 18.805L25.7434 18.8983L25.7321 18.9917L25.7198 19.0849L25.7065 19.1781L25.6922 19.2712L25.677 19.3642L25.6609 19.4572L25.6437 19.5501L25.6256 19.6429L25.6065 19.7355L25.5864 19.8281L25.5654 19.9205L25.5434 20.0127L25.5205 20.1048L25.4966 20.1968L25.4717 20.2886L25.4458 20.3802L25.419 20.4715L25.3913 20.5627L25.3626 20.6538L25.3328 20.7446L25.3022 20.835L25.2706 20.9254L25.2381 21.0154L25.2046 21.1052L25.1701 21.1947L25.1347 21.284L25.0984 21.373L25.0611 21.4617L25.0229 21.55L24.9838 21.6381L24.9437 21.7258L24.9026 21.8132L24.8607 21.9002L24.8178 21.987L24.774 22.0733L24.7293 22.1593L24.6837 22.2448L24.6371 22.33L24.5897 22.4148L24.5414 22.4992L24.4921 22.5831L24.4419 22.6667L24.3909 22.7498L24.339 22.8325L24.2861 22.9146L24.2324 22.9964L24.1778 23.0776L24.1223 23.1584L24.066 23.2387L24.0088 23.3185L23.9507 23.3978L23.8918 23.4766L23.8321 23.5548L23.7714 23.6325L23.71 23.7096L23.6477 23.7862L23.5846 23.8622L23.5206 23.9378L23.4558 24.0126L23.3902 24.087L23.3238 24.1606L23.2566 24.2338L23.1886 24.3062L23.1199 24.3782L23.0503 24.4494L22.98 24.52L22.9088 24.5899L22.837 24.6593L22.7642 24.7279L22.6909 24.7958L22.6167 24.8632L22.5418 24.9298L22.4662 24.9957L22.3898 25.061L22.3127 25.1254L22.2349 25.1893L22.1564 25.2523L22.0771 25.3146L21.9972 25.3762L21.9166 25.4371L21.8354 25.4972L21.7534 25.5566L21.6708 25.6152L21.5875 25.673L21.5036 25.73L21.419 25.7862L21.3338 25.8417L21.2479 25.8963L21.1615 25.9502L21.0744 26.0031L20.9868 26.0554L20.8985 26.1067L20.8097 26.1572L20.7202 26.2069L20.6302 26.2558L20.5397 26.3038L20.4486 26.3509L20.3569 26.3971L20.2647 26.4425L20.172 26.487L20.0787 26.5306L19.985 26.5734L19.8907 26.6152L19.796 26.6562L19.7007 26.6962L19.605 26.7353L19.5089 26.7735L19.4122 26.8108L19.3152 26.8472L19.2177 26.8826L19.1198 26.9171L19.0214 26.9506L18.9226 26.9833L18.8234 27.0149L18.7239 27.0456L18.624 27.0754L18.5237 27.1041L18.423 27.1319L18.322 27.1587L18.2206 27.1846L18.119 27.2094L18.017 27.2334L17.9146 27.2562L17.812 27.2782L17.709 27.299L17.6058 27.319L17.5024 27.3379L17.3986 27.3558L17.2946 27.3727L17.1905 27.3886L17.086 27.4034L16.9813 27.4173L16.8764 27.4302L16.7714 27.4419L16.6661 27.4527L16.5606 27.4625L16.455 27.4712L16.3493 27.4789L16.2434 27.4855L16.1373 27.4911L16.0311 27.4957L15.9248 27.4992L15.8184 27.5017L15.7119 27.5031L15.6053 27.5035L15.4986 27.5029L15.392 27.5011L15.2852 27.4984L15.1784 27.4946L15.0716 27.4897L14.9647 27.4838L14.8579 27.4768L14.751 27.4688L14.6442 27.4597L14.5374 27.4495L14.4306 27.4383L14.3239 27.4261L14.2173 27.4128L14.1106 27.3984L14.0042 27.383L13.8978 27.3665L13.7914 27.349L13.6852 27.3303L13.5791 27.3107L13.4732 27.29L13.3674 27.2682L13.2618 27.2454L13.1563 27.2215L13.051 27.1966L12.9459 27.1706L12.841 27.1435L12.7363 27.1154L12.6318 27.0863L12.5277 27.0562L12.4237 27.025L12.3199 26.9927L12.2165 26.9594L12.1134 26.925L12.0104 26.8897L11.9078 26.8533L11.8056 26.8158L11.7036 26.7774L11.602 26.7378L11.5007 26.6974L11.3998 26.6558L11.2992 26.6132L11.199 26.5697L11.0993 26.525L10.9998 26.4794L10.9009 26.4329L10.8023 26.3853L10.7042 26.3366L10.6064 26.287L10.5092 26.2365L10.4124 26.1849L10.3161 26.1323L10.2202 26.0788L10.1249 26.0242L10.03 25.9688L9.93568 25.9123L9.84184 25.8549L9.74856 25.7966L9.65584 25.7372L9.56368 25.677L9.47208 25.6157L9.38104 25.5535L9.29056 25.4905L9.20072 25.4265L9.11144 25.3615L9.0228 25.2957L8.93472 25.2289L8.84736 25.1612L8.76064 25.0926L8.67456 25.0231L8.58912 24.9528L8.50432 24.8815L8.42024 24.8094L8.33688 24.7364L8.25416 24.6626L8.17216 24.5878L8.09096 24.5123L8.0104 24.4359L7.93056 24.3586L7.85152 24.2806L7.77328 24.2017L7.69576 24.1219L7.61896 24.0414L7.54296 23.9601L7.46784 23.878L7.39344 23.795L7.31984 23.7114L7.24712 23.6269L7.17512 23.5417L7.10408 23.4557L7.03376 23.3689L6.9644 23.2814L6.89584 23.1932L6.82816 23.1042L6.76136 23.0146L6.69536 22.9242L6.63032 22.8331L6.56624 22.7414L6.50296 22.6489L6.44064 22.5558L6.37925 22.462L6.31878 22.3675L6.25923 22.2724L6.20064 22.1766L6.14299 22.0802L6.0863 21.9833L6.03058 21.8856L5.97582 21.7874L5.92204 21.6886L5.86925 21.5892L5.81744 21.4892L5.76663 21.3886L5.71683 21.2875L5.66804 21.1858L5.62026 21.0837L5.57351 20.9809L5.52778 20.8777L5.4831 20.7739L5.43945 20.6696L5.39684 20.5649L5.3553 20.4597L5.3148 20.3539L5.27537 20.2478L5.237 20.1412L5.19971 20.0341L5.1635 19.9266L5.12838 19.8187L5.09434 19.7104L5.06139 19.6018L5.02954 19.4926L4.9988 19.3832L4.96916 19.2734L4.94064 19.1631L4.91323 19.0526L4.88694 18.9418L4.86178 18.8306L4.83774 18.719L4.81483 18.6073L4.79306 18.4952L4.77243 18.3828L4.75294 18.2702L4.73461 18.1573L4.71742 18.0442L4.70138 17.9308L4.6865 17.8172L4.67278 17.7034L4.66022 17.5894L4.64882 17.4752L4.63858 17.3608L4.62953 17.2462L4.62164 17.1316L4.61492 17.0167L4.60938 16.9018L4.60502 16.7867L4.60185 16.6715L4.59985 16.5562L4.59903 16.4408L4.59941 16.3254L4.60096 16.2098L4.60371 16.0943L4.60764 15.9787L4.61277 15.863L4.61909 15.7474L4.62659 15.6318L4.6353 15.5162L4.64518 15.4005L4.65627 15.285L4.66856 15.1694L4.68203 15.0539L4.6967 14.9385L4.71257 14.8231L4.72962 14.7078L4.74788 14.5927L4.76732 14.4777L4.78796 14.3628L4.80979 14.248L4.83282 14.1334L4.85702 14.019L4.88243 13.9046L4.90902 13.7906L4.9368 13.6766L4.96576 13.563L4.99591 13.4495L5.02724 13.3362L5.05975 13.2233L5.09345 13.1106L5.12831 12.9981L5.16436 12.8858L5.20158 12.774L5.23996 12.6624L5.27952 12.5511L5.32024 12.4402L5.36212 12.3295L5.40516 12.2193L5.44936 12.1094L5.49471 11.9998L5.54122 11.8907L5.58886 11.7819L5.63766 11.6736L5.68759 11.5657L5.73866 11.4582L5.79086 11.3511L5.8442 11.2446L5.89866 11.1384L5.95423 11.0328L6.01092 10.9276L6.06873 10.823L6.12764 10.7188L6.18765 10.6151L6.24876 10.5121L6.31097 10.4095L6.37426 10.3075L6.43864 10.2061L6.50408 10.1052L6.57064 10.005L6.63816 9.90528L6.70688 9.80624L6.77656 9.70776L6.84728 9.60992L6.91912 9.5128L6.99192 9.41624L7.06584 9.3204L7.14072 9.2252L7.21664 9.13072L7.29352 9.03696L7.37144 8.94384L7.4504 8.85144L7.53032 8.75976L7.6112 8.66888L7.69312 8.57872L7.77592 8.48928L7.85976 8.40064L7.94456 8.31272L8.03024 8.22568L8.11688 8.13936L8.20448 8.05384L8.29304 7.9692L8.38248 7.88528L8.4728 7.80232L8.56408 7.72008L8.65624 7.6388L8.7492 7.55832L8.84312 7.47872L8.93792 7.4L9.03352 7.32216L9.13 7.2452L9.22736 7.1692L9.32552 7.09408L9.42448 7.01992L9.52432 6.94664L9.62488 6.87432L9.72624 6.80296L9.82848 6.73256L9.93144 6.66312L10.0351 6.59472L10.1397 6.5272L10.2449 6.46072L10.3509 6.39523L10.4576 6.33074L10.565 6.26727L10.6731 6.20482L10.782 6.1434L10.8915 6.08301L11.0017 6.02367L11.1126 5.96538L11.2241 5.90815L11.3362 5.85198L11.449 5.79689L11.5625 5.74287L11.6766 5.68994L11.7912 5.6381L11.9065 5.58736L12.0223 5.53773L12.1387 5.48921L12.2557 5.4418L12.3731 5.39552L12.4912 5.35037L12.6098 5.30635L12.7289 5.26348L12.8485 5.22175L12.9686 5.18118L13.0891 5.14176L13.2101 5.10351L13.3316 5.06642L13.4535 5.03051L13.5759 4.99578L13.6986 4.96223L13.8218 4.92987L13.9454 4.8987L14.0694 4.86874L14.1938 4.83998L14.3185 4.81241L14.4435 4.78606L14.5689 4.76092L14.6946 4.73701L14.8206 4.71431L14.947 4.69284L15.0736 4.6726L15.2005 4.65359L15.3276 4.63582L15.455 4.61929L15.5025 4.61359ZM15.5562 9.14888L15.5196 6.05751L15.4152 6.0721L15.303 6.08893L15.1906 6.10687L15.079 6.12584L14.9673 6.14597L14.8561 6.16713L14.7451 6.18938L14.6346 6.21266L14.5242 6.23706L14.4142 6.26253L14.3044 6.28905L14.1951 6.31662L14.0859 6.34529L13.981 6.37392L13.8693 6.40568L13.7614 6.43744L13.6539 6.47024L13.547 6.504L13.4404 6.53888L13.3342 6.5748L13.2284 6.61168L13.1232 6.64952L13.0184 6.68848L12.9141 6.72832L12.8102 6.76928L12.707 6.81112L12.6039 6.85408L12.5016 6.89792L12.3998 6.94272L12.2986 6.98848L12.1978 7.03528L12.0974 7.08304L11.998 7.1316L11.8987 7.18128L11.8005 7.23176L11.7024 7.28336L11.6053 7.3356L11.5083 7.38912L11.4123 7.4432L11.317 7.49832L11.2221 7.5544L11.1279 7.61128L11.0342 7.6692L10.9415 7.72776L10.8492 7.78736L10.7578 7.84776L10.667 7.90896L10.5768 7.97112L10.4872 8.03416L10.3986 8.09776L10.3106 8.16248L10.2232 8.22792L10.1366 8.29416L10.0509 8.36112L9.96568 8.42904L9.88144 8.4976L9.79792 8.56696L9.71504 8.63728L9.6332 8.70808L9.55192 8.77984L9.47144 8.85232L9.39184 8.92544L9.31312 8.99928L9.23496 9.074L9.15792 9.1492L9.0816 9.2252L9.006 9.302L8.93136 9.37936L8.85752 9.45752L8.78456 9.53624L8.71248 9.6156L8.6412 9.69568L8.57072 9.77648L8.50144 9.85768L8.4328 9.93968L8.36504 10.0223L8.29824 10.1054L8.2324 10.1891L8.16728 10.2736L8.1032 10.3585L8.04 10.444L7.97776 10.5301L7.9164 10.6167L7.85608 10.7038L7.79664 10.7914L7.73808 10.8797L7.68048 10.9684L7.62392 11.0575L7.56832 11.1472L7.5136 11.2375L7.45984 11.3281L7.40712 11.4192L7.35528 11.5108L7.30456 11.6026L7.25472 11.6951L7.20576 11.7881L7.158 11.8812L7.11112 11.975L7.06528 12.069L7.0204 12.1634L6.97656 12.2582L6.93368 12.3534L6.89184 12.4489L6.85096 12.5447L6.8112 12.6409L6.7724 12.7374L6.73456 12.8342L6.69776 12.9314L6.66208 13.0287L6.62728 13.1265L6.59368 13.2243L6.56096 13.3226L6.52936 13.421L6.49872 13.5198L6.4692 13.6186L6.44064 13.7178L6.4132 13.817L6.38673 13.9166L6.36132 14.0163L6.33696 14.1162L6.31365 14.2163L6.29137 14.3165L6.27013 14.4169L6.24996 14.5174L6.23082 14.6179L6.21272 14.7187L6.19569 14.8195L6.17968 14.9205L6.16474 15.0214L6.15083 15.1225L6.13798 15.2236L6.12618 15.3248L6.11542 15.426L6.1057 15.5273L6.09704 15.6286L6.08942 15.7298L6.08285 15.8311L6.07731 15.9324L6.07282 16.0336L6.06938 16.1348L6.06698 16.2359L6.06562 16.337L6.06529 16.4382L6.066 16.5391L6.06775 16.64L6.07054 16.7408L6.07434 16.8414L6.07919 16.9421L6.08506 17.0426L6.09196 17.1428L6.09989 17.243L6.10883 17.343L6.1188 17.4429L6.12978 17.5426L6.14178 17.6421L6.15479 17.7414L6.16881 17.8405L6.18384 17.9394L6.19986 18.038L6.2169 18.1365L6.23493 18.2347L6.25394 18.3326L6.27396 18.4303L6.29495 18.5277L6.31694 18.6249L6.33989 18.7216L6.36384 18.8182L6.38875 18.9144L6.41464 19.0103L6.44144 19.1058L6.46928 19.2011L6.498 19.296L6.52776 19.3906L6.5584 19.4848L6.59 19.5786L6.62256 19.6719L6.656 19.765L6.6904 19.8576L6.72576 19.9498L6.762 20.0416L6.79912 20.133L6.8372 20.2239L6.87616 20.3144L6.91608 20.4044L6.9568 20.494L6.99848 20.583L7.04104 20.6717L7.0844 20.7598L7.12872 20.8474L7.17384 20.9346L7.21984 21.0213L7.26672 21.1074L7.3144 21.193L7.36296 21.278L7.41232 21.3625L7.46256 21.4464L7.5136 21.5298L7.56544 21.6126L7.61808 21.6949L7.6716 21.7766L7.72576 21.8576L7.78088 21.9382L7.83664 22.018L7.89328 22.0973L7.95064 22.1759L8.0088 22.2539L8.06768 22.3313L8.12736 22.4081L8.18768 22.4842L8.2488 22.5596L8.31064 22.6344L8.3732 22.7086L8.43648 22.7819L8.50048 22.8548L8.56512 22.9268L8.63048 22.9982L8.69648 23.0689L8.7632 23.1389L8.83056 23.2082L8.89864 23.2767L8.96728 23.3446L9.03664 23.4117L9.10664 23.4781L9.17712 23.5437L9.2484 23.6086L9.32016 23.6727L9.39256 23.7361L9.4656 23.7987L9.5392 23.8606L9.61336 23.9217L9.68808 23.9819L9.76336 24.0414L9.8392 24.1002L9.9156 24.1582L9.99256 24.2153L10.0699 24.2716L10.1478 24.3271L10.2263 24.3818L10.3053 24.4358L10.3848 24.4889L10.4647 24.5411L10.5451 24.5926L10.626 24.6432L10.7073 24.693L10.789 24.7419L10.8713 24.79L10.9538 24.8372L11.037 24.8836L11.1203 24.9291L11.2042 24.9738L11.2885 25.0177L11.373 25.0606L11.4581 25.1027L11.5435 25.1439L11.6292 25.1843L11.7152 25.2238L11.8017 25.2624L11.8883 25.3001L11.9754 25.3369L12.0627 25.3729L12.1504 25.4079L12.2382 25.4421L12.3265 25.4754L12.415 25.5078L12.5037 25.5393L12.5926 25.5698L12.6819 25.5996L12.7714 25.6283L12.861 25.6562L12.951 25.6832L13.041 25.7093L13.1313 25.7345L13.2218 25.7587L13.3124 25.7822L13.4032 25.8046L13.4942 25.8261L13.5853 25.8467L13.6766 25.8665L13.7679 25.8853L13.8594 25.9031L13.951 25.9201L14.0426 25.9362L14.1345 25.9514L14.2263 25.9655L14.3182 25.9789L14.4102 25.9913L14.5022 26.0028L14.5943 26.0134L14.6864 26.023L14.7786 26.0318L14.8707 26.0396L14.9629 26.0465L15.055 26.0526L15.1471 26.0576L15.2392 26.0618L15.3314 26.0651L15.4234 26.0675L15.5153 26.069L15.6072 26.0695L15.699 26.0692L15.7908 26.0679L15.8825 26.0658L15.974 26.0628L16.0655 26.0589L16.1568 26.054L16.248 26.0483L16.339 26.0417L16.43 26.0342L16.5207 26.0258L16.6114 26.0165L16.7018 26.0063L16.7921 25.9953L16.8822 25.9834L16.972 25.9706L17.0617 25.957L17.1511 25.9424L17.2402 25.927L17.3293 25.9107L17.418 25.8936L17.5065 25.8757L17.5948 25.8568L17.6826 25.8371L17.7703 25.8166L17.8577 25.7952L17.9448 25.773L18.0316 25.75L18.1181 25.7261L18.2042 25.7014L18.2901 25.6758L18.3755 25.6495L18.4606 25.6223L18.5455 25.5943L18.6299 25.5655L18.714 25.5359L18.7977 25.5055L18.881 25.4743L18.9638 25.4423L19.0463 25.4095L19.1285 25.3759L19.2102 25.3416L19.2914 25.3065L19.3722 25.2706L19.4526 25.234L19.5326 25.1966L19.6121 25.1584L19.691 25.1196L19.7697 25.0798L19.8477 25.0395L19.9254 24.9983L20.0023 24.9566L20.079 24.914L20.1551 24.8707L20.2306 24.8267L20.3058 24.782L20.3803 24.7366L20.4542 24.6906L20.5278 24.6438L20.6006 24.5964L20.673 24.5482L20.745 24.4994L20.8162 24.4499L20.8867 24.3999L20.957 24.349L21.0264 24.2978L21.0954 24.2457L21.1638 24.193L21.2313 24.1398L21.2986 24.0858L21.3651 24.0312L21.4308 23.9762L21.4962 23.9202L21.5608 23.864L21.6247 23.8072L21.6882 23.7495L21.7508 23.6916L21.8129 23.633L21.8743 23.5738L21.935 23.5141L21.995 23.4538L22.0545 23.393L22.1132 23.3316L22.1711 23.2698L22.2285 23.2074L22.2852 23.1445L22.341 23.0812L22.3964 23.0172L22.4509 22.9529L22.5046 22.8881L22.5578 22.8226L22.6102 22.757L22.6618 22.6907L22.7128 22.6241L22.763 22.5569L22.8125 22.4894L22.8611 22.4215L22.9092 22.353L22.9564 22.2842L23.0029 22.215L23.0487 22.1454L23.0935 22.0755L23.1378 22.0051L23.1813 21.9343L23.224 21.8633L23.2658 21.7918L23.3071 21.7199L23.3474 21.648L23.387 21.5754L23.4258 21.5026L23.4638 21.4296L23.5011 21.356L23.5374 21.2826L23.5732 21.2083L23.6079 21.1343L23.6422 21.0595L23.6753 20.9849L23.7078 20.9096L23.7395 20.8344L23.7703 20.7589L23.8004 20.683L23.8297 20.607L23.858 20.5309L23.8858 20.4543L23.9125 20.3777L23.9385 20.3009L23.9637 20.2238L23.9881 20.1466L24.0117 20.0692L24.0344 19.9918L24.0563 19.914L24.0774 19.8362L24.0977 19.7582L24.1171 19.6802L24.1358 19.6021L24.1536 19.5236L24.1706 19.4452L24.1868 19.3667L24.2021 19.2882L24.2166 19.2096L24.2303 19.1306L24.2432 19.052L24.2553 18.9731L24.2665 18.8942L24.2769 18.8154L24.2865 18.7364L24.2953 18.6572L24.3032 18.5786L24.3104 18.4993L24.3167 18.4203L24.3222 18.3415L24.3269 18.2625L24.3307 18.1836L24.3338 18.1048L24.336 18.0258L24.3374 17.9472L24.338 17.8683L24.3378 17.7897L24.3368 17.711L24.335 17.6327L24.3323 17.5542L24.3289 17.4759L24.3246 17.3979L24.3196 17.3197L24.3138 17.2417L24.3072 17.1641L24.2998 17.0862L24.2915 17.0089L24.2825 16.9314L24.2727 16.8542L24.2622 16.7772L24.2508 16.7002L24.2386 16.6236L24.2258 16.5472L24.2121 16.471L24.1976 16.395L24.1823 16.3189L24.1663 16.2434L24.1496 16.1681L24.1321 16.0929L24.1138 16.0178L24.0948 15.9434L24.075 15.8688L24.0545 15.7948L24.0332 15.7209L24.0112 15.6474L23.9885 15.5741L23.965 15.501L23.9408 15.4285L23.9159 15.3562L23.8902 15.2839L23.8639 15.2123L23.8368 15.1409L23.809 15.0699L23.7806 14.9991L23.7514 14.9286L23.7215 14.8588L23.6909 14.789L23.6597 14.7198L23.6278 14.651L23.5951 14.5824L23.5618 14.5142L23.5279 14.4466L23.4932 14.3791L23.458 14.3123L23.4221 14.2459L23.3854 14.1796L23.3483 14.1141L23.3104 14.0488L23.2719 13.9841L23.2327 13.9196L23.1931 13.8558L23.1526 13.7922L23.1118 13.7294L23.0702 13.6669L23.028 13.6049L22.9851 13.5432L22.9418 13.4822L22.8979 13.4217L22.8533 13.3614L22.8082 13.3019L22.7625 13.2428L22.7164 13.1843L22.6695 13.1262L22.6222 13.0686L22.5742 13.0116L22.5258 12.955L22.477 12.8992L22.4274 12.8437L22.3774 12.7889L22.3269 12.7345L22.276 12.6809L22.2243 12.6275L22.1724 12.575L22.1198 12.5227L22.0668 12.4713L22.0134 12.4204L21.9595 12.37L21.905 12.3202L21.8502 12.271L21.7949 12.2225L21.739 12.1743L21.683 12.1271L21.6263 12.0802L21.5693 12.034L21.5118 11.9885L21.4539 11.9434L21.3957 11.899L21.3372 11.8554L21.278 11.8122L21.2184 11.7696L21.1588 11.7279L21.0984 11.6866L21.0381 11.6462L20.9772 11.6062L20.9159 11.5668L20.8542 11.5281L20.7925 11.4902L20.7301 11.4527L20.6676 11.4161L20.6046 11.3799L20.5416 11.3446L20.4781 11.3099L20.4142 11.2758L20.3502 11.2423L20.2859 11.2097L20.2213 11.1775L20.1563 11.1461L20.0913 11.1154L20.0261 11.0854L19.9602 11.0558L19.8946 11.0272L19.8285 10.9992L19.7621 10.9718L19.6956 10.9451L19.629 10.9192L19.5622 10.8939L19.4949 10.8692L19.4278 10.8454L19.3602 10.8221L19.2926 10.7995L19.225 10.7777L19.157 10.7566L19.0891 10.7361L19.0206 10.7162L18.9524 10.6972L18.884 10.6788L18.8154 10.6611L18.7468 10.6441L18.6778 10.6278L18.609 10.6122L18.5402 10.5973L18.4711 10.583L18.4018 10.5694L18.333 10.5567L18.2636 10.5446L18.1944 10.5331L18.1249 10.5223L18.0558 10.5123L17.9861 10.5029L17.9169 10.4943L17.8474 10.4863L17.778 10.479L17.7086 10.4725L17.6391 10.4666L17.5699 10.4614L17.5003 10.4569L17.431 10.453L17.3619 10.4499L17.2923 10.4474L17.2233 10.4457L17.1542 10.4446L17.0851 10.4442L17.0379 10.4444L17.0737 13.4647L17.095 13.4648L17.1347 13.4654L17.1745 13.4663L17.2143 13.4676L17.2542 13.4694L17.2941 13.4716L17.334 13.4742L17.374 13.4772L17.414 13.4806L17.4541 13.4845L17.4942 13.4887L17.5342 13.4934L17.5744 13.4985L17.6145 13.504L17.6546 13.5099L17.6948 13.5163L17.735 13.5231L17.775 13.5303L17.8152 13.538L17.8553 13.546L17.8954 13.5546L17.9354 13.5634L17.9755 13.5728L18.0154 13.5826L18.0554 13.5927L18.0954 13.6034L18.1352 13.6144L18.175 13.6258L18.2148 13.6378L18.2545 13.6501L18.2941 13.6629L18.3337 13.6761L18.3731 13.6897L18.4126 13.7037L18.4518 13.7182L18.491 13.733L18.5302 13.7483L18.5692 13.7641L18.6081 13.7802L18.6469 13.7968L18.6856 13.8138L18.7242 13.8313L18.7626 13.8491L18.801 13.8674L18.8391 13.8861L18.8772 13.9052L18.915 13.9248L18.9528 13.9447L18.9904 13.9651L19.0278 13.9859L19.0651 14.0071L19.1022 14.0287L19.1391 14.0507L19.1759 14.0732L19.2125 14.0961L19.2489 14.1194L19.285 14.143L19.321 14.167L19.3569 14.1916L19.3925 14.2165L19.4278 14.2418L19.463 14.2674L19.498 14.2935L19.5327 14.32L19.5672 14.3469L19.6015 14.3742L19.6355 14.4018L19.6693 14.4298L19.7029 14.4583L19.7362 14.4871L19.7692 14.5163L19.802 14.5459L19.8345 14.5759L19.8667 14.6062L19.8986 14.637L19.9304 14.6681L19.9618 14.6995L19.9929 14.7314L20.0238 14.7635L20.0542 14.7961L20.0845 14.829L20.1144 14.8623L20.1441 14.8959L20.1734 14.9299L20.2023 14.9642L20.231 14.9989L20.2594 15.0339L20.2874 15.0693L20.315 15.105L20.3424 15.141L20.3694 15.1774L20.3961 15.2141L20.4223 15.251L20.4483 15.2884L20.4739 15.3261L20.4991 15.3641L20.524 15.4023L20.5486 15.441L20.5726 15.4798L20.5964 15.519L20.6198 15.5586L20.6427 15.5983L20.6654 15.6384L20.6875 15.6788L20.7094 15.7194L20.7308 15.7604L20.7518 15.8016L20.7724 15.843L20.7926 15.8848L20.8123 15.9269L20.8317 15.9691L20.8506 16.0117L20.8692 16.0545L20.8873 16.0975L20.905 16.1408L20.9222 16.1843L20.939 16.2281L20.9554 16.2721L20.9713 16.3163L20.9867 16.3608L21.0018 16.4054L21.0163 16.4503L21.0304 16.4954L21.0441 16.5407L21.0573 16.5862L21.07 16.632L21.0823 16.6778L21.0942 16.7239L21.1054 16.7702L21.1163 16.8167L21.1267 16.8633L21.1366 16.9102L21.1461 16.9571L21.155 17.0042L21.1634 17.0515L21.1714 17.099L21.179 17.1465L21.1859 17.1942L21.1924 17.2421L21.1984 17.2901L21.2039 17.3382L21.209 17.3865L21.2134 17.4348L21.2174 17.4833L21.221 17.5319L21.2239 17.5806L21.2264 17.6294L21.2283 17.6782L21.2298 17.7272L21.2307 17.7762L21.2312 17.8254L21.231 17.8745L21.2305 17.9238L21.2294 17.9731L21.2277 18.0225L21.2255 18.0719L21.2228 18.1214L21.2196 18.1709L21.2158 18.2204L21.2115 18.27L21.2067 18.3196L21.2014 18.3692L21.1955 18.4188L21.1891 18.4685L21.1822 18.5182L21.1748 18.5678L21.1668 18.6174L21.1582 18.667L21.1492 18.7166L21.1396 18.7662L21.1295 18.8157L21.1188 18.8652L21.1076 18.9146L21.0959 18.9641L21.0836 19.0134L21.0708 19.0628L21.0575 19.112L21.0436 19.1612L21.0292 19.2102L21.0142 19.2593L20.9988 19.3082L20.9828 19.357L20.9662 19.4058L20.9492 19.4545L20.9315 19.503L20.9134 19.5514L20.8947 19.5997L20.8755 19.6479L20.8558 19.6959L20.8355 19.7438L20.8147 19.7916L20.7934 19.8393L20.7715 19.8867L20.7491 19.934L20.7262 19.9812L20.7028 20.0282L20.6788 20.075L20.6543 20.1216L20.6293 20.168L20.6038 20.2142L20.5778 20.2603L20.5512 20.3062L20.5241 20.3518L20.4966 20.3972L20.4684 20.4425L20.4398 20.4874L20.4107 20.5322L20.381 20.5767L20.351 20.621L20.3203 20.665L20.2892 20.7088L20.2575 20.7523L20.2254 20.7956L20.1928 20.8386L20.1597 20.8813L20.1261 20.9238L20.092 20.9659L20.0574 21.0078L20.0224 21.0494L19.9869 21.0906L19.9508 21.1316L19.9143 21.1722L19.8774 21.2126L19.8399 21.2526L19.8021 21.2923L19.7637 21.3318L19.7249 21.3708L19.6856 21.4094L19.6459 21.4478L19.6057 21.4858L19.565 21.5234L19.524 21.5607L19.4825 21.5977L19.4406 21.6342L19.3982 21.6704L19.3554 21.7062L19.3121 21.7416L19.2684 21.7766L19.2243 21.8112L19.1798 21.8454L19.135 21.8793L19.0896 21.9127L19.0439 21.9457L18.9978 21.9782L18.9513 22.0105L18.9043 22.0422L18.857 22.0735L18.8094 22.1043L18.7613 22.1348L18.7128 22.1648L18.664 22.1943L18.6148 22.2234L18.5653 22.252L18.5154 22.2802L18.465 22.3078L18.4145 22.3351L18.3635 22.3618L18.3122 22.3882L18.2606 22.4139L18.2086 22.4393L18.1563 22.4641L18.1037 22.4884L18.0508 22.5122L17.9975 22.5355L17.944 22.5584L17.8902 22.5807L17.836 22.6025L17.7815 22.6238L17.7268 22.6446L17.6718 22.6648L17.6165 22.6846L17.561 22.7038L17.5051 22.7224L17.449 22.7406L17.3927 22.7581L17.3362 22.7751L17.2793 22.7917L17.2222 22.8076L17.165 22.823L17.1074 22.8378L17.0497 22.8522L16.9917 22.8658L16.9335 22.879L16.8751 22.8916L16.8166 22.9037L16.7578 22.9151L16.6988 22.926L16.6397 22.9363L16.5803 22.9461L16.5209 22.9552L16.4612 22.9638L16.4014 22.9718L16.3414 22.9792L16.2814 22.986L16.2211 22.9922L16.1607 22.9978L16.1002 23.0028L16.0396 23.0073L15.9788 23.011L15.918 23.0143L15.857 23.017L15.796 23.019L15.7348 23.0203L15.6736 23.0211L15.6123 23.0214L15.551 23.021L15.4895 23.0199L15.428 23.0182L15.3665 23.016L15.3049 23.0131L15.2432 23.0096L15.1815 23.0055L15.1198 23.0008L15.0582 22.9954L14.9964 22.9894L14.9347 22.9829L14.873 22.9756L14.8113 22.9678L14.7495 22.9593L14.6878 22.9502L14.6262 22.9405L14.5646 22.9302L14.503 22.9192L14.4414 22.9076L14.3799 22.8954L14.3185 22.8826L14.2571 22.8691L14.1958 22.855L14.1346 22.8402L14.0734 22.825L14.0124 22.809L13.9515 22.7923L13.8906 22.7751L13.83 22.7573L13.7694 22.7388L13.7089 22.7197L13.6486 22.7L13.5883 22.6797L13.5283 22.6587L13.4684 22.6371L13.4086 22.6149L13.3491 22.5921L13.2897 22.5686L13.2305 22.5446L13.1714 22.5199L13.1126 22.4946L13.054 22.4687L12.9955 22.4422L12.9374 22.4151L12.8793 22.3874L12.8215 22.359L12.764 22.3301L12.7067 22.3006L12.6497 22.2704L12.5929 22.2397L12.5363 22.2083L12.4801 22.1764L12.424 22.1438L12.3683 22.1107L12.3129 22.077L12.2578 22.0427L12.2029 22.0078L12.1483 21.9724L12.0941 21.9363L12.0402 21.8997L11.9866 21.8625L11.9334 21.8247L11.8804 21.7864L11.8278 21.7474L11.7756 21.708L11.7238 21.668L11.6722 21.6274L11.6211 21.5862L11.5703 21.5446L11.5199 21.5023L11.4699 21.4595L11.4203 21.4162L11.3711 21.3723L11.3223 21.3279L11.2739 21.283L11.2259 21.2375L11.1784 21.1915L11.1312 21.145L11.0846 21.098L11.0383 21.0505L10.9925 21.0024L10.9471 20.9539L10.9022 20.9048L10.8578 20.8553L10.8138 20.8053L10.7704 20.7547L10.7274 20.7038L10.6848 20.6522L10.6428 20.6002L10.6013 20.5478L10.5602 20.495L10.5197 20.4416L10.4797 20.3878L10.4402 20.3335L10.4013 20.2788L10.3628 20.2236L10.3249 20.168L10.2875 20.112L10.2507 20.0555L10.2145 19.9986L10.1787 19.9414L10.1436 19.8837L10.109 19.8255L10.075 19.767L10.0415 19.7081L10.0086 19.6488L9.97632 19.5891L9.94464 19.529L9.91352 19.4686L9.88296 19.4078L9.85304 19.3466L9.82376 19.285L9.79504 19.2232L9.76696 19.161L9.73952 19.0984L9.71264 19.0354L9.6864 18.9722L9.6608 18.9086L9.63584 18.8448L9.61152 18.7806L9.58792 18.7161L9.56488 18.6513L9.54248 18.5862L9.52072 18.5209L9.49968 18.4552L9.47928 18.3893L9.45952 18.3231L9.4404 18.2566L9.422 18.1899L9.40432 18.123L9.3872 18.0558L9.37088 17.9883L9.3552 17.9207L9.34016 17.8528L9.32584 17.7847L9.31224 17.7164L9.29928 17.6479L9.28704 17.5792L9.27552 17.5103L9.26472 17.4413L9.25456 17.372L9.24512 17.3026L9.23648 17.233L9.22848 17.1634L9.2212 17.0934L9.21464 17.0234L9.2088 16.9533L9.20368 16.883L9.19928 16.8126L9.1956 16.7422L9.19264 16.6716L9.1904 16.6009L9.18896 16.5301L9.18824 16.4593L9.18816 16.3883L9.18888 16.3173L9.1904 16.2462L9.19256 16.1751L9.19552 16.1039L9.1992 16.0327L9.2036 15.9615L9.20872 15.8902L9.21464 15.819L9.22128 15.7477L9.22864 15.6764L9.2368 15.6051L9.24568 15.5338L9.25528 15.4626L9.26568 15.3914L9.2768 15.3202L9.28872 15.2491L9.30128 15.178L9.31464 15.107L9.3288 15.036L9.34368 14.9651L9.35928 14.8943L9.3756 14.8236L9.39272 14.753L9.41056 14.6825L9.4292 14.6121L9.44856 14.5418L9.46864 14.4717L9.48944 14.4016L9.51104 14.3318L9.53336 14.262L9.5564 14.1924L9.58024 14.123L9.6048 14.0538L9.63008 13.9847L9.65608 13.9158L9.68288 13.8472L9.7104 13.7787L9.73864 13.7104L9.7676 13.6424L9.79728 13.5746L9.82776 13.507L9.85888 13.4396L9.8908 13.3725L9.92336 13.3057L9.95672 13.239L9.99072 13.1727L10.0255 13.1067L10.061 13.041L10.0972 12.9755L10.1341 12.9103L10.1717 12.8454L10.21 12.781L10.249 12.7167L10.2887 12.6528L10.3292 12.5893L10.3703 12.526L10.4121 12.4631L10.4546 12.4006L10.4978 12.3385L10.5416 12.2767L10.5862 12.2154L10.6314 12.1543L10.6772 12.0937L10.7238 12.0335L10.771 11.9737L10.8189 11.9143L10.8674 11.8553L10.9166 11.7968L10.9664 11.7386L11.0169 11.681L11.068 11.6238L11.1198 11.567L11.1722 11.5107L11.2252 11.4549L11.2789 11.3995L11.3331 11.3446L11.388 11.2902L11.4435 11.2363L11.4996 11.183L11.5563 11.1301L11.6136 11.0777L11.6714 11.0258L11.7299 10.9745L11.789 10.9238L11.8486 10.8734L11.9089 10.8238L11.9696 10.7746L12.031 10.726L12.0928 10.678L12.1553 10.6306L12.2182 10.5837L12.2818 10.5374L12.3458 10.4917L12.4104 10.4466L12.4755 10.402L12.5412 10.3581L12.6073 10.3148L12.6739 10.2722L12.7411 10.2301L12.8087 10.1886L12.8769 10.1478L12.9454 10.1077L13.0146 10.0682L13.0841 10.0293L13.1541 9.99104L13.2246 9.95352L13.2954 9.91664L13.3668 9.8804L13.4386 9.84488L13.5108 9.81L13.5834 9.77584L13.6565 9.74232L13.7299 9.70952L13.8038 9.67744L13.8781 9.646L13.9527 9.61528L14.0277 9.58536L14.1031 9.55608L14.1789 9.52752L14.255 9.49968L14.3314 9.47264L14.4083 9.44624L14.4854 9.42064L14.563 9.39576L14.6407 9.3716L14.7189 9.34824L14.7973 9.3256L14.876 9.30376L14.955 9.28264L15.0343 9.26224L15.1139 9.24264L15.1938 9.22384L15.2739 9.20584L15.3542 9.18856L15.4349 9.17208L15.5157 9.1564L15.5562 9.14888ZM16.5498 14.9571L15.6277 15.1774L15.5735 10.6098L15.5301 10.6196L15.4646 10.635L15.3993 10.6511L15.3344 10.6678L15.2696 10.685L15.2052 10.703L15.1408 10.7216L15.077 10.7406L15.0131 10.7605L14.95 10.7807L14.8867 10.8018L14.8238 10.8234L14.7613 10.8455L14.699 10.8682L14.6372 10.8915L14.5755 10.9155L14.5142 10.94L14.4532 10.965L14.3923 10.9908L14.3322 11.0169L14.2722 11.0438L14.2126 11.071L14.1532 11.099L14.0943 11.1274L14.0356 11.1565L13.9775 11.186L13.9197 11.2161L13.8622 11.2467L13.8052 11.2778L13.7485 11.3095L13.6922 11.3418L13.6365 11.3744L13.5807 11.4078L13.5257 11.4414L13.4711 11.4757L13.4169 11.5104L13.363 11.5457L13.3096 11.5814L13.2566 11.6177L13.2041 11.6543L13.1521 11.6914L13.1003 11.7291L13.0491 11.7673L12.9984 11.8058L12.9481 11.8449L12.8983 11.8842L12.849 11.9242L12.8001 11.9646L12.7516 12.0054L12.7038 12.0466L12.6563 12.0882L12.6094 12.1302L12.5629 12.1727L12.5169 12.2157L12.4714 12.259L12.4265 12.3026L12.3819 12.3467L12.338 12.3911L12.2946 12.436L12.2517 12.4811L12.2091 12.5269L12.1673 12.5727L12.1259 12.619L12.085 12.6658L12.0448 12.7126L12.005 12.7601L11.9658 12.8076L11.927 12.8558L11.889 12.904L11.8513 12.9527L11.8142 13.0018L11.7778 13.051L11.7418 13.1005L11.7064 13.1503L11.6715 13.2006L11.6372 13.251L11.6035 13.3018L11.5704 13.3526L11.5378 13.4038L11.5058 13.4554L11.4744 13.5071L11.4434 13.5593L11.4132 13.6114L11.3834 13.6639L11.3542 13.7166L11.3258 13.7695L11.2978 13.8226L11.2704 13.876L11.2435 13.9297L11.2174 13.9833L11.1917 14.0374L11.1666 14.0914L11.1422 14.1458L11.1183 14.2002L11.095 14.255L11.0724 14.3097L11.0503 14.3647L11.0289 14.4198L11.0079 14.4751L10.9877 14.5304L10.968 14.586L10.9489 14.6417L10.9304 14.6974L10.9125 14.7533L10.8952 14.8094L10.8785 14.8654L10.8625 14.9215L10.847 14.9778L10.832 15.0342L10.8178 15.0906L10.8041 15.1471L10.791 15.2037L10.7785 15.2603L10.7666 15.317L10.7554 15.3737L10.7446 15.4304L10.7346 15.4873L10.7251 15.544L10.7162 15.6008L10.7079 15.6578L10.7002 15.7145L10.6932 15.7714L10.6867 15.8282L10.6808 15.885L10.6755 15.942L10.6708 15.9987L10.6667 16.0555L10.6632 16.1123L10.6602 16.169L10.6579 16.2256L10.6562 16.2822L10.655 16.3388L10.6544 16.3953L10.6545 16.4517L10.655 16.508L10.6562 16.5643L10.658 16.6205L10.6603 16.6766L10.6632 16.7326L10.6667 16.7884L10.6708 16.8442L10.6754 16.8998L10.6806 16.9554L10.6864 17.0109L10.6927 17.066L10.6996 17.1213L10.707 17.1762L10.7151 17.2311L10.7237 17.2858L10.7328 17.3403L10.7425 17.3948L10.7527 17.449L10.7635 17.503L10.7748 17.5568L10.7867 17.6106L10.7991 17.664L10.8121 17.7174L10.8255 17.7703L10.8396 17.8234L10.8541 17.8759L10.8691 17.9285L10.8847 17.9806L10.9008 18.0327L10.9174 18.0845L10.9346 18.1359L10.9522 18.1874L10.9704 18.2384L10.989 18.2891L11.0082 18.3398L11.0278 18.3901L11.048 18.4401L11.0686 18.4898L11.0897 18.5393L11.1114 18.5886L11.1334 18.6375L11.156 18.6862L11.179 18.7345L11.2025 18.7825L11.2266 18.8304L11.2509 18.8778L11.2758 18.9249L11.3011 18.9718L11.327 19.0182L11.3532 19.0645L11.3798 19.1104L11.407 19.1558L11.4346 19.2011L11.4625 19.246L11.4909 19.2905L11.5198 19.3347L11.549 19.3786L11.5786 19.4222L11.6086 19.4651L11.6391 19.508L11.67 19.5504L11.7012 19.5924L11.733 19.6342L11.765 19.6754L11.7974 19.7163L11.8302 19.7569L11.8634 19.7971L11.8968 19.8368L11.9308 19.8762L11.965 19.9153L11.9996 19.9538L12.0347 19.9921L12.0699 20.0298L12.1056 20.0673L12.1416 20.1042L12.1778 20.1408L12.2146 20.177L12.2515 20.2127L12.2888 20.2481L12.3264 20.283L12.3643 20.3174L12.4026 20.3515L12.441 20.3851L12.4798 20.4183L12.5189 20.4511L12.5582 20.4834L12.5979 20.5154L12.6379 20.5468L12.678 20.5778L12.7185 20.6083L12.7592 20.6385L12.8002 20.6682L12.8414 20.6974L12.8828 20.7262L12.9245 20.7545L12.9664 20.7823L13.0085 20.8097L13.0508 20.8366L13.0935 20.8632L13.1362 20.8891L13.1792 20.9147L13.2225 20.9398L13.2658 20.9644L13.3093 20.9886L13.3532 21.0123L13.3971 21.0355L13.4412 21.0582L13.4854 21.0805L13.53 21.1023L13.5745 21.1236L13.6194 21.1445L13.6642 21.1649L13.7092 21.1847L13.7545 21.2042L13.7998 21.2231L13.8452 21.2416L13.8908 21.2596L13.9365 21.277L13.9824 21.2941L14.0282 21.3106L14.0743 21.3267L14.1203 21.3422L14.1665 21.3574L14.2128 21.372L14.2592 21.3862L14.3056 21.3998L14.3521 21.413L14.3987 21.4256L14.4454 21.4378L14.492 21.4495L14.5387 21.4608L14.5854 21.4715L14.6322 21.4818L14.6791 21.4916L14.726 21.5009L14.7729 21.5098L14.8198 21.5181L14.8667 21.526L14.9137 21.5334L14.9606 21.5403L15.0074 21.5467L15.0544 21.5526L15.1013 21.5582L15.1482 21.5632L15.1951 21.5677L15.242 21.5718L15.2888 21.5754L15.3355 21.5785L15.3823 21.5811L15.429 21.5833L15.4755 21.585L15.5222 21.5862L15.5686 21.587L15.615 21.5874L15.6614 21.5872L15.7077 21.5866L15.754 21.5855L15.8002 21.584L15.8461 21.5821L15.892 21.5796L15.938 21.5767L15.9836 21.5734L16.0293 21.5696L16.0747 21.5654L16.1202 21.5607L16.1654 21.5555L16.2105 21.55L16.2556 21.544L16.3004 21.5375L16.345 21.5306L16.3898 21.5234L16.4342 21.5156L16.4784 21.5074L16.5226 21.4988L16.5666 21.4898L16.6102 21.4803L16.6538 21.4705L16.6973 21.4602L16.7406 21.4494L16.7836 21.4384L16.8265 21.4269L16.8691 21.415L16.9118 21.4026L16.954 21.3898L16.9959 21.3767L17.038 21.3631L17.0796 21.3492L17.121 21.335L17.1622 21.3202L17.2032 21.3051L17.2441 21.2896L17.2846 21.2738L17.3249 21.2575L17.365 21.241L17.4048 21.2239L17.4445 21.2066L17.4837 21.1889L17.5229 21.1708L17.5617 21.1524L17.6002 21.1336L17.6386 21.1145L17.6765 21.095L17.7143 21.0752L17.7518 21.055L17.789 21.0345L17.8259 21.0137L17.8626 20.9925L17.899 20.971L17.935 20.9491L17.9708 20.927L18.0063 20.9045L18.0415 20.8818L18.0765 20.8586L18.111 20.8353L18.1454 20.8115L18.1794 20.7875L18.213 20.7633L18.2463 20.7386L18.2794 20.7138L18.3121 20.6886L18.3445 20.6631L18.3766 20.6374L18.4083 20.6114L18.4398 20.5852L18.4708 20.5586L18.5015 20.5318L18.532 20.5048L18.5621 20.4774L18.5918 20.4499L18.6211 20.4222L18.6502 20.3941L18.679 20.3658L18.7074 20.3373L18.7354 20.3086L18.763 20.2795L18.7902 20.2504L18.8173 20.2209L18.8438 20.1914L18.8701 20.1614L18.8959 20.1314L18.9214 20.1012L18.9466 20.0706L18.9713 20.0401L18.9958 20.0092L19.0198 19.9782L19.0434 19.947L19.0668 19.9156L19.0897 19.8842L19.1122 19.8523L19.1345 19.8204L19.1562 19.7885L19.1777 19.7562L19.1988 19.7238L19.2194 19.6914L19.2397 19.6587L19.2596 19.6259L19.2791 19.593L19.2983 19.5599L19.317 19.5267L19.3354 19.4934L19.3534 19.4599L19.371 19.4265L19.3882 19.3928L19.4051 19.359L19.4216 19.3252L19.4377 19.2911L19.4534 19.2571L19.4686 19.223L19.4835 19.1888L19.4981 19.1544L19.5122 19.1201L19.526 19.0854L19.5393 19.0511L19.5523 19.0162L19.5648 18.9819L19.577 18.947L19.5889 18.9122L19.6002 18.8774L19.6113 18.8426L19.6219 18.8078L19.6322 18.7726L19.642 18.7378L19.6516 18.7026L19.6606 18.6678L19.6694 18.6326L19.6777 18.5974L19.6856 18.5625L19.6931 18.5276L19.7003 18.4922L19.7071 18.4573L19.7135 18.422L19.7195 18.3871L19.7252 18.3521L19.7305 18.317L19.7354 18.2818L19.7398 18.2468L19.744 18.2119L19.7478 18.1771L19.7511 18.142L19.7542 18.1072L19.7568 18.0723L19.759 18.0375L19.761 18.0028L19.7625 17.9682L19.7636 17.9337L19.7644 17.899L19.7649 17.8643L19.765 17.83L19.7646 17.7957L19.764 17.7614L19.763 17.7273L19.7616 17.693L19.7598 17.6593L19.7578 17.6249L19.7554 17.5914L19.7526 17.5577L19.7494 17.5238L19.7459 17.4902L19.7422 17.457L19.7379 17.4234L19.7334 17.3904L19.7286 17.3572L19.7234 17.3245L19.7178 17.2914L19.712 17.2586L19.7058 17.2262L19.6994 17.1938L19.6925 17.1613L19.6853 17.1292L19.6778 17.0971L19.67 17.0653L19.6619 17.0337L19.6534 17.0018L19.6447 16.9706L19.6356 16.9391L19.6262 16.9082L19.6166 16.8772L19.6066 16.8465L19.5962 16.8158L19.5856 16.7853L19.5748 16.7552L19.5636 16.7252L19.5521 16.6951L19.5403 16.6655L19.5282 16.6358L19.516 16.6067L19.5033 16.5774L19.4905 16.5485L19.4773 16.5198L19.4638 16.4912L19.4502 16.4629L19.4362 16.4347L19.4219 16.4067L19.4074 16.379L19.3926 16.3515L19.3777 16.3242L19.3624 16.2971L19.3468 16.2702L19.3311 16.2436L19.3151 16.2172L19.2988 16.1909L19.2823 16.165L19.2656 16.1393L19.2486 16.1138L19.2314 16.0884L19.2141 16.0634L19.1964 16.0386L19.1786 16.014L19.1605 15.9897L19.1422 15.9656L19.1238 15.9418L19.105 15.9181L19.0861 15.8948L19.067 15.8717L19.0477 15.8488L19.0282 15.8262L19.0086 15.8038L18.9886 15.7818L18.9686 15.7599L18.9483 15.7382L18.9279 15.717L18.9073 15.6959L18.8865 15.675L18.8656 15.6546L18.8445 15.6343L18.8233 15.6143L18.8017 15.5945L18.7802 15.575L18.7585 15.5558L18.7366 15.5369L18.7146 15.5182L18.6924 15.4998L18.6701 15.4817L18.6477 15.4638L18.6251 15.4462L18.6024 15.4289L18.5796 15.4119L18.5566 15.3951L18.5335 15.3786L18.5104 15.3625L18.4871 15.3465L18.4638 15.3309L18.4402 15.3155L18.4166 15.3004L18.393 15.2856L18.369 15.271L18.3452 15.2568L18.3213 15.2429L18.2972 15.2292L18.273 15.2158L18.2488 15.2026L18.2246 15.1898L18.2002 15.1772L18.1758 15.165L18.1512 15.1529L18.1267 15.1412L18.1021 15.1298L18.0774 15.1186L18.0527 15.1078L18.0278 15.0971L18.0032 15.0869L17.9782 15.0769L17.9533 15.0671L17.9284 15.0577L17.9034 15.0485L17.8785 15.0396L17.8534 15.031L17.8284 15.0226L17.8034 15.0146L17.7783 15.0067L17.7532 14.9992L17.7282 14.992L17.703 14.985L17.678 14.9784L17.6529 14.972L17.6278 14.9658L17.6026 14.96L17.5776 14.9544L17.5525 14.9491L17.5274 14.9441L17.5025 14.9393L17.4775 14.9348L17.4524 14.9306L17.4276 14.9266L17.4025 14.923L17.3778 14.9195L17.3528 14.9163L17.328 14.9134L17.3034 14.9108L17.2786 14.9085L17.2539 14.9063L17.2293 14.9045L17.2047 14.9029L17.1802 14.9015L17.1557 14.9005L17.1314 14.8997L17.107 14.899L17.0828 14.8987L17.0586 14.8986L17.0345 14.8989L17.0104 14.8993L16.9865 14.8999L16.9626 14.9009L16.9389 14.902L16.915 14.9034L16.8915 14.905L16.868 14.9069L16.8446 14.909L16.8213 14.9114L16.7979 14.9139L16.7749 14.9167L16.7518 14.9198L16.729 14.923L16.7061 14.9266L16.6834 14.9302L16.6608 14.9342L16.6385 14.9383L16.616 14.9427L16.5938 14.9473L16.5717 14.9521L16.5498 14.9571Z" fill="white"/>
<path d="M48.8063 19.5352C48.8063 19.2305 48.7594 18.957 48.6656 18.7148C48.5797 18.4648 48.4156 18.2383 48.1735 18.0352C47.9313 17.8242 47.5914 17.6172 47.1539 17.4141C46.7164 17.2109 46.15 17 45.4547 16.7812C44.6813 16.5312 43.9469 16.25 43.2516 15.9375C42.5641 15.625 41.9547 15.2617 41.4235 14.8477C40.9 14.4258 40.486 13.9375 40.1813 13.3828C39.8844 12.8281 39.736 12.1836 39.736 11.4492C39.736 10.7383 39.8922 10.0938 40.2047 9.51562C40.5172 8.92969 40.9547 8.42969 41.5172 8.01562C42.0797 7.59375 42.7438 7.26953 43.5094 7.04297C44.2828 6.81641 45.1305 6.70312 46.0524 6.70312C47.3102 6.70312 48.4078 6.92969 49.3453 7.38281C50.2828 7.83594 51.0094 8.45703 51.525 9.24609C52.0485 10.0352 52.3102 10.9375 52.3102 11.9531H48.818C48.818 11.4531 48.7125 11.0156 48.5016 10.6406C48.2985 10.2578 47.986 9.95703 47.5641 9.73828C47.15 9.51953 46.6266 9.41016 45.9938 9.41016C45.3844 9.41016 44.8766 9.50391 44.4703 9.69141C44.0641 9.87109 43.7594 10.1172 43.5563 10.4297C43.3531 10.7344 43.2516 11.0781 43.2516 11.4609C43.2516 11.75 43.3219 12.0117 43.4625 12.2461C43.611 12.4805 43.8297 12.6992 44.1188 12.9023C44.4078 13.1055 44.7633 13.2969 45.1852 13.4766C45.6071 13.6562 46.0953 13.832 46.65 14.0039C47.5797 14.2852 48.3961 14.6016 49.0992 14.9531C49.8102 15.3047 50.4039 15.6992 50.8805 16.1367C51.3571 16.5742 51.7164 17.0703 51.9586 17.625C52.2008 18.1797 52.3219 18.8086 52.3219 19.5117C52.3219 20.2539 52.1774 20.918 51.8883 21.5039C51.5992 22.0898 51.1813 22.5859 50.6344 22.9922C50.0875 23.3984 49.4352 23.707 48.6774 23.918C47.9196 24.1289 47.0719 24.2344 46.1344 24.2344C45.2906 24.2344 44.4586 24.125 43.6383 23.9062C42.818 23.6797 42.0719 23.3398 41.4 22.8867C40.736 22.4336 40.2047 21.8555 39.8063 21.1523C39.4078 20.4492 39.2086 19.6172 39.2086 18.6562H42.736C42.736 19.1875 42.818 19.6367 42.9821 20.0039C43.1461 20.3711 43.3766 20.668 43.6735 20.8945C43.9781 21.1211 44.3375 21.2852 44.7516 21.3867C45.1735 21.4883 45.6344 21.5391 46.1344 21.5391C46.7438 21.5391 47.2438 21.4531 47.6344 21.2812C48.0328 21.1094 48.3258 20.8711 48.5133 20.5664C48.7086 20.2617 48.8063 19.918 48.8063 19.5352ZM66.0914 13.8867V16.6289H57.1852V13.8867H66.0914ZM58.2281 6.9375V24H54.7125V6.9375H58.2281ZM68.5992 6.9375V24H65.0953V6.9375H68.5992ZM83.1071 21.2578V24H74.025V21.2578H83.1071ZM75.1735 6.9375V24H71.6578V6.9375H75.1735ZM81.9235 13.8867V16.5586H74.025V13.8867H81.9235ZM83.0953 6.9375V9.69141H74.025V6.9375H83.0953ZM96.1266 21.2578V24H87.5367V21.2578H96.1266ZM88.6735 6.9375V24H85.1578V6.9375H88.6735ZM109.111 21.2578V24H100.521V21.2578H109.111ZM101.658 6.9375V24H98.1422V6.9375H101.658ZM120.009 19.5352C120.009 19.2305 119.963 18.957 119.869 18.7148C119.783 18.4648 119.619 18.2383 119.377 18.0352C119.134 17.8242 118.795 17.6172 118.357 17.4141C117.92 17.2109 117.353 17 116.658 16.7812C115.884 16.5312 115.15 16.25 114.455 15.9375C113.767 15.625 113.158 15.2617 112.627 14.8477C112.103 14.4258 111.689 13.9375 111.384 13.3828C111.088 12.8281 110.939 12.1836 110.939 11.4492C110.939 10.7383 111.095 10.0938 111.408 9.51562C111.72 8.92969 112.158 8.42969 112.72 8.01562C113.283 7.59375 113.947 7.26953 114.713 7.04297C115.486 6.81641 116.334 6.70312 117.255 6.70312C118.513 6.70312 119.611 6.92969 120.548 7.38281C121.486 7.83594 122.213 8.45703 122.728 9.24609C123.252 10.0352 123.513 10.9375 123.513 11.9531H120.021C120.021 11.4531 119.916 11.0156 119.705 10.6406C119.502 10.2578 119.189 9.95703 118.767 9.73828C118.353 9.51953 117.83 9.41016 117.197 9.41016C116.588 9.41016 116.08 9.50391 115.673 9.69141C115.267 9.87109 114.963 10.1172 114.759 10.4297C114.556 10.7344 114.455 11.0781 114.455 11.4609C114.455 11.75 114.525 12.0117 114.666 12.2461C114.814 12.4805 115.033 12.6992 115.322 12.9023C115.611 13.1055 115.966 13.2969 116.388 13.4766C116.81 13.6562 117.298 13.832 117.853 14.0039C118.783 14.2852 119.599 14.6016 120.302 14.9531C121.013 15.3047 121.607 15.6992 122.084 16.1367C122.56 16.5742 122.92 17.0703 123.162 17.625C123.404 18.1797 123.525 18.8086 123.525 19.5117C123.525 20.2539 123.38 20.918 123.091 21.5039C122.802 22.0898 122.384 22.5859 121.838 22.9922C121.291 23.3984 120.638 23.707 119.88 23.918C119.123 24.1289 118.275 24.2344 117.338 24.2344C116.494 24.2344 115.662 24.125 114.841 23.9062C114.021 23.6797 113.275 23.3398 112.603 22.8867C111.939 22.4336 111.408 21.8555 111.009 21.1523C110.611 20.4492 110.412 19.6172 110.412 18.6562H113.939C113.939 19.1875 114.021 19.6367 114.185 20.0039C114.349 20.3711 114.58 20.668 114.877 20.8945C115.181 21.1211 115.541 21.2852 115.955 21.3867C116.377 21.4883 116.838 21.5391 117.338 21.5391C117.947 21.5391 118.447 21.4531 118.838 21.2812C119.236 21.1094 119.529 20.8711 119.716 20.5664C119.912 20.2617 120.009 19.918 120.009 19.5352Z" fill="white"/>
</svg>
