<svg width="177" height="32" viewBox="0 0 177 32" fill="none" xmlns="http://www.w3.org/2000/svg">
<path d="M22.681 26.4845L1.2684 11.714C-0.901507 10.2173 -0.163881 7.10088 2.54194 6.36802L25.2997 0.191307C25.7818 0.0173566 26.2984 -0.0391112 26.8067 0.0265948C27.3149 0.0923008 27.8002 0.278283 28.2223 0.569108C28.6442 0.859932 28.9908 1.24721 29.2331 1.6988C29.4754 2.15038 29.6066 2.65326 29.6157 3.16568L28.2669 24.1116C28.107 26.5978 24.8509 27.9812 22.681 26.4845Z" fill="white"/>
<path d="M15.8896 30.1304L3.27476 5.46053C2.98639 4.89617 2.8595 4.26311 2.90807 3.6312C2.95664 2.99929 3.17878 2.39306 3.54999 1.87938C3.92122 1.36571 4.42709 0.964526 5.01183 0.720083C5.59657 0.47564 6.23746 0.397438 6.86382 0.494105L30.2423 4.10225C30.7805 4.18534 31.2913 4.39499 31.7328 4.71397C32.1742 5.03296 32.5336 5.45217 32.7815 5.93712C33.0293 6.42208 33.1585 6.95894 33.1584 7.50356C33.1583 8.04818 33.0289 8.58501 32.781 9.06988L22.0114 30.1316C21.7222 30.6943 21.2835 31.1665 20.7434 31.496C20.2033 31.8257 19.5829 32 18.9502 31.9998C18.3174 31.9997 17.697 31.8252 17.1571 31.4954C16.6171 31.1655 16.1786 30.6932 15.8896 30.1304Z" fill="white"/>
<path d="M23.5791 8.72693L19.0903 8L13.5791 9.57011L15.7789 14.0856L20.9301 17.8153C21.0438 17.8966 21.1688 17.959 21.3007 18L23.2573 13.9852L23.5791 8.72693Z" fill="#0F172A"/>
<path d="M51.5647 19.5352C51.5647 19.2305 51.5178 18.957 51.4241 18.7148C51.3381 18.4648 51.1741 18.2383 50.9319 18.0352C50.6897 17.8242 50.3499 17.6172 49.9124 17.4141C49.4749 17.2109 48.9084 17 48.2131 16.7812C47.4397 16.5312 46.7053 16.25 46.01 15.9375C45.3225 15.625 44.7131 15.2617 44.1819 14.8477C43.6584 14.4258 43.2444 13.9375 42.9397 13.3828C42.6428 12.8281 42.4944 12.1836 42.4944 11.4492C42.4944 10.7383 42.6506 10.0938 42.9631 9.51562C43.2756 8.92969 43.7131 8.42969 44.2756 8.01562C44.8381 7.59375 45.5022 7.26953 46.2678 7.04297C47.0413 6.81641 47.8889 6.70312 48.8108 6.70312C50.0686 6.70312 51.1663 6.92969 52.1038 7.38281C53.0413 7.83594 53.7678 8.45703 54.2834 9.24609C54.8069 10.0352 55.0686 10.9375 55.0686 11.9531H51.5764C51.5764 11.4531 51.4709 11.0156 51.26 10.6406C51.0569 10.2578 50.7444 9.95703 50.3225 9.73828C49.9084 9.51953 49.385 9.41016 48.7522 9.41016C48.1428 9.41016 47.635 9.50391 47.2288 9.69141C46.8225 9.87109 46.5178 10.1172 46.3147 10.4297C46.1116 10.7344 46.01 11.0781 46.01 11.4609C46.01 11.75 46.0803 12.0117 46.2209 12.2461C46.3694 12.4805 46.5881 12.6992 46.8772 12.9023C47.1663 13.1055 47.5217 13.2969 47.9436 13.4766C48.3655 13.6562 48.8538 13.832 49.4084 14.0039C50.3381 14.2852 51.1545 14.6016 51.8577 14.9531C52.5686 15.3047 53.1624 15.6992 53.6389 16.1367C54.1155 16.5742 54.4749 17.0703 54.717 17.625C54.9592 18.1797 55.0803 18.8086 55.0803 19.5117C55.0803 20.2539 54.9358 20.918 54.6467 21.5039C54.3577 22.0898 53.9397 22.5859 53.3928 22.9922C52.8459 23.3984 52.1936 23.707 51.4358 23.918C50.678 24.1289 49.8303 24.2344 48.8928 24.2344C48.0491 24.2344 47.217 24.125 46.3967 23.9062C45.5764 23.6797 44.8303 23.3398 44.1584 22.8867C43.4944 22.4336 42.9631 21.8555 42.5647 21.1523C42.1663 20.4492 41.967 19.6172 41.967 18.6562H45.4944C45.4944 19.1875 45.5764 19.6367 45.7405 20.0039C45.9045 20.3711 46.135 20.668 46.4319 20.8945C46.7366 21.1211 47.0959 21.2852 47.51 21.3867C47.9319 21.4883 48.3928 21.5391 48.8928 21.5391C49.5022 21.5391 50.0022 21.4531 50.3928 21.2812C50.7913 21.1094 51.0842 20.8711 51.2717 20.5664C51.467 20.2617 51.5647 19.918 51.5647 19.5352ZM60.635 13.9453V24H57.2483V11.3203H60.4241L60.635 13.9453ZM60.1663 17.2148H59.2288C59.2288 16.332 59.3342 15.5195 59.5452 14.7773C59.7639 14.0273 60.0803 13.3789 60.4944 12.832C60.9163 12.2773 61.4358 11.8477 62.053 11.543C62.6702 11.2383 63.385 11.0859 64.1975 11.0859C64.76 11.0859 65.2756 11.1719 65.7444 11.3438C66.2131 11.5078 66.6155 11.7695 66.9514 12.1289C67.2952 12.4805 67.5608 12.9414 67.7483 13.5117C67.9358 14.0742 68.0295 14.75 68.0295 15.5391V24H64.6545V15.9141C64.6545 15.3359 64.5764 14.8906 64.4202 14.5781C64.2639 14.2656 64.0413 14.0469 63.7522 13.9219C63.4709 13.7969 63.1311 13.7344 62.7327 13.7344C62.2952 13.7344 61.9124 13.8242 61.5842 14.0039C61.2639 14.1836 60.9983 14.4336 60.7874 14.7539C60.5764 15.0664 60.4202 15.4336 60.3186 15.8555C60.217 16.2773 60.1663 16.7305 60.1663 17.2148ZM67.7131 16.8281L66.5061 16.9805C66.5061 16.1523 66.6077 15.3828 66.8108 14.6719C67.0217 13.9609 67.3303 13.3359 67.7366 12.7969C68.1506 12.2578 68.6624 11.8398 69.2717 11.543C69.8811 11.2383 70.5842 11.0859 71.3811 11.0859C71.9905 11.0859 72.5452 11.1758 73.0452 11.3555C73.5452 11.5273 73.9709 11.8047 74.3225 12.1875C74.6819 12.5625 74.9553 13.0547 75.1428 13.6641C75.3381 14.2734 75.4358 15.0195 75.4358 15.9023V24H72.0491V15.9023C72.0491 15.3164 71.9709 14.8711 71.8147 14.5664C71.6663 14.2539 71.4475 14.0391 71.1584 13.9219C70.8772 13.7969 70.5413 13.7344 70.1506 13.7344C69.7444 13.7344 69.3889 13.8164 69.0842 13.9805C68.7795 14.1367 68.5256 14.3555 68.3225 14.6367C68.1194 14.918 67.967 15.2461 67.8655 15.6211C67.7639 15.9883 67.7131 16.3906 67.7131 16.8281ZM84.8928 21.1406V15.4922C84.8928 15.0859 84.8264 14.7383 84.6936 14.4492C84.5608 14.1523 84.3538 13.9219 84.0725 13.7578C83.7991 13.5938 83.4436 13.5117 83.0061 13.5117C82.6311 13.5117 82.3069 13.5781 82.0334 13.7109C81.76 13.8359 81.5491 14.0195 81.4006 14.2617C81.2522 14.4961 81.178 14.7734 81.178 15.0938H77.803C77.803 14.5547 77.928 14.043 78.178 13.5586C78.428 13.0742 78.7913 12.6484 79.2678 12.2812C79.7444 11.9062 80.3108 11.6133 80.967 11.4023C81.6311 11.1914 82.3733 11.0859 83.1936 11.0859C84.178 11.0859 85.053 11.25 85.8186 11.5781C86.5842 11.9062 87.1858 12.3984 87.6233 13.0547C88.0686 13.7109 88.2913 14.5312 88.2913 15.5156V20.9414C88.2913 21.6367 88.3342 22.207 88.4202 22.6523C88.5061 23.0898 88.6311 23.4727 88.7952 23.8008V24H85.385C85.2209 23.6562 85.0959 23.2266 85.01 22.7109C84.9319 22.1875 84.8928 21.6641 84.8928 21.1406ZM85.3381 16.2773L85.3616 18.1875H83.4749C83.0295 18.1875 82.6428 18.2383 82.3147 18.3398C81.9866 18.4414 81.717 18.5859 81.5061 18.7734C81.2952 18.9531 81.1389 19.1641 81.0374 19.4062C80.9436 19.6484 80.8967 19.9141 80.8967 20.2031C80.8967 20.4922 80.9631 20.7539 81.0959 20.9883C81.2288 21.2148 81.4202 21.3945 81.6702 21.5273C81.9202 21.6523 82.2131 21.7148 82.5491 21.7148C83.0569 21.7148 83.4983 21.6133 83.8733 21.4102C84.2483 21.207 84.5374 20.957 84.7405 20.6602C84.9514 20.3633 85.0608 20.082 85.0686 19.8164L85.9592 21.2461C85.8342 21.5664 85.6624 21.8984 85.4436 22.2422C85.2327 22.5859 84.9631 22.9102 84.635 23.2148C84.3069 23.5117 83.9124 23.7578 83.4514 23.9531C82.9905 24.1406 82.4436 24.2344 81.8108 24.2344C81.0061 24.2344 80.2756 24.0742 79.6194 23.7539C78.9709 23.4258 78.4553 22.9766 78.0725 22.4062C77.6975 21.8281 77.51 21.1719 77.51 20.4375C77.51 19.7734 77.635 19.1836 77.885 18.668C78.135 18.1523 78.5022 17.7188 78.9866 17.3672C79.4788 17.0078 80.092 16.7383 80.8264 16.5586C81.5608 16.3711 82.4124 16.2773 83.3811 16.2773H85.3381ZM94.2678 14.0859V24H90.8928V11.3203H94.0686L94.2678 14.0859ZM98.0881 11.2383L98.0295 14.3672C97.8655 14.3438 97.6663 14.3242 97.4319 14.3086C97.2053 14.2852 96.9983 14.2734 96.8108 14.2734C96.3342 14.2734 95.9202 14.3359 95.5686 14.4609C95.2249 14.5781 94.9358 14.7539 94.7014 14.9883C94.4749 15.2227 94.303 15.5078 94.1858 15.8438C94.0764 16.1797 94.0139 16.5625 93.9983 16.9922L93.3186 16.7812C93.3186 15.9609 93.4006 15.207 93.5647 14.5195C93.7288 13.8242 93.967 13.2188 94.2795 12.7031C94.5999 12.1875 94.9905 11.7891 95.4514 11.5078C95.9124 11.2266 96.4397 11.0859 97.0334 11.0859C97.2209 11.0859 97.4124 11.1016 97.6077 11.1328C97.803 11.1562 97.9631 11.1914 98.0881 11.2383ZM106.479 11.3203V13.7109H99.0959V11.3203H106.479ZM100.924 8.19141H104.299V20.1797C104.299 20.5469 104.346 20.8281 104.44 21.0234C104.541 21.2188 104.69 21.3555 104.885 21.4336C105.08 21.5039 105.326 21.5391 105.623 21.5391C105.834 21.5391 106.022 21.5312 106.186 21.5156C106.358 21.4922 106.502 21.4688 106.619 21.4453L106.631 23.9297C106.342 24.0234 106.03 24.0977 105.694 24.1523C105.358 24.207 104.987 24.2344 104.58 24.2344C103.838 24.2344 103.19 24.1133 102.635 23.8711C102.088 23.6211 101.666 23.2227 101.369 22.6758C101.073 22.1289 100.924 21.4102 100.924 20.5195V8.19141ZM112.127 6.9375V24H108.612V6.9375H112.127ZM118.924 14.2266V16.9688H111.166V14.2266H118.924ZM119.744 6.9375V9.69141H111.166V6.9375H119.744ZM125.135 11.3203V24H121.748V11.3203H125.135ZM121.537 8.01562C121.537 7.52344 121.709 7.11719 122.053 6.79688C122.397 6.47656 122.858 6.31641 123.436 6.31641C124.006 6.31641 124.463 6.47656 124.807 6.79688C125.158 7.11719 125.334 7.52344 125.334 8.01562C125.334 8.50781 125.158 8.91406 124.807 9.23438C124.463 9.55469 124.006 9.71484 123.436 9.71484C122.858 9.71484 122.397 9.55469 122.053 9.23438C121.709 8.91406 121.537 8.50781 121.537 8.01562ZM131.229 14.0273V24H127.854V11.3203H131.018L131.229 14.0273ZM130.737 17.2148H129.823C129.823 16.2773 129.944 15.4336 130.186 14.6836C130.428 13.9258 130.768 13.2812 131.205 12.75C131.643 12.2109 132.162 11.8008 132.764 11.5195C133.373 11.2305 134.053 11.0859 134.803 11.0859C135.397 11.0859 135.94 11.1719 136.432 11.3438C136.924 11.5156 137.346 11.7891 137.698 12.1641C138.057 12.5391 138.33 13.0352 138.518 13.6523C138.713 14.2695 138.811 15.0234 138.811 15.9141V24H135.412V15.9023C135.412 15.3398 135.334 14.9023 135.178 14.5898C135.022 14.2773 134.791 14.0586 134.487 13.9336C134.19 13.8008 133.823 13.7344 133.385 13.7344C132.932 13.7344 132.537 13.8242 132.201 14.0039C131.873 14.1836 131.6 14.4336 131.381 14.7539C131.17 15.0664 131.01 15.4336 130.901 15.8555C130.791 16.2773 130.737 16.7305 130.737 17.2148ZM148.865 21.2344V6H152.264V24H149.205L148.865 21.2344ZM140.85 17.8125V17.5664C140.85 16.5977 140.959 15.7188 141.178 14.9297C141.397 14.1328 141.717 13.4492 142.139 12.8789C142.561 12.3086 143.08 11.8672 143.698 11.5547C144.315 11.2422 145.018 11.0859 145.807 11.0859C146.549 11.0859 147.198 11.2422 147.752 11.5547C148.315 11.8672 148.791 12.3125 149.182 12.8906C149.58 13.4609 149.901 14.1367 150.143 14.918C150.385 15.6914 150.561 16.5391 150.67 17.4609V18C150.561 18.8828 150.385 19.7031 150.143 20.4609C149.901 21.2188 149.58 21.8828 149.182 22.4531C148.791 23.0156 148.315 23.4531 147.752 23.7656C147.19 24.0781 146.533 24.2344 145.783 24.2344C144.994 24.2344 144.291 24.0742 143.674 23.7539C143.065 23.4336 142.549 22.9844 142.127 22.4062C141.713 21.8281 141.397 21.1484 141.178 20.3672C140.959 19.5859 140.85 18.7344 140.85 17.8125ZM144.225 17.5664V17.8125C144.225 18.3359 144.264 18.8242 144.342 19.2773C144.428 19.7305 144.565 20.1328 144.752 20.4844C144.948 20.8281 145.198 21.0977 145.502 21.293C145.815 21.4805 146.194 21.5742 146.639 21.5742C147.217 21.5742 147.694 21.4453 148.069 21.1875C148.444 20.9219 148.729 20.5586 148.924 20.0977C149.127 19.6367 149.244 19.1055 149.276 18.5039V16.9688C149.252 16.4766 149.182 16.0352 149.065 15.6445C148.955 15.2461 148.791 14.9062 148.573 14.625C148.362 14.3438 148.096 14.125 147.776 13.9688C147.463 13.8125 147.092 13.7344 146.662 13.7344C146.225 13.7344 145.85 13.8359 145.537 14.0391C145.225 14.2344 144.971 14.5039 144.776 14.8477C144.588 15.1914 144.448 15.5977 144.354 16.0664C144.268 16.5273 144.225 17.0273 144.225 17.5664ZM160.737 24.2344C159.752 24.2344 158.869 24.0781 158.088 23.7656C157.307 23.4453 156.643 23.0039 156.096 22.4414C155.557 21.8789 155.143 21.2266 154.854 20.4844C154.565 19.7344 154.42 18.9375 154.42 18.0938V17.625C154.42 16.6641 154.557 15.7852 154.83 14.9883C155.104 14.1914 155.494 13.5 156.002 12.9141C156.518 12.3281 157.143 11.8789 157.877 11.5664C158.612 11.2461 159.44 11.0859 160.362 11.0859C161.26 11.0859 162.057 11.2344 162.752 11.5312C163.448 11.8281 164.03 12.25 164.498 12.7969C164.975 13.3438 165.334 14 165.576 14.7656C165.819 15.5234 165.94 16.3672 165.94 17.2969V18.7031H155.862V16.4531H162.623V16.1953C162.623 15.7266 162.537 15.3086 162.365 14.9414C162.201 14.5664 161.951 14.2695 161.615 14.0508C161.28 13.832 160.85 13.7227 160.326 13.7227C159.881 13.7227 159.498 13.8203 159.178 14.0156C158.858 14.2109 158.596 14.4844 158.393 14.8359C158.198 15.1875 158.049 15.6016 157.948 16.0781C157.854 16.5469 157.807 17.0625 157.807 17.625V18.0938C157.807 18.6016 157.877 19.0703 158.018 19.5C158.166 19.9297 158.373 20.3008 158.639 20.6133C158.912 20.9258 159.24 21.168 159.623 21.3398C160.014 21.5117 160.455 21.5977 160.948 21.5977C161.557 21.5977 162.123 21.4805 162.647 21.2461C163.178 21.0039 163.635 20.6406 164.018 20.1562L165.658 21.9375C165.393 22.3203 165.03 22.6875 164.569 23.0391C164.115 23.3906 163.569 23.6797 162.928 23.9062C162.287 24.125 161.557 24.2344 160.737 24.2344ZM171.237 14.0859V24H167.862V11.3203H171.037L171.237 14.0859ZM175.057 11.2383L174.998 14.3672C174.834 14.3438 174.635 14.3242 174.401 14.3086C174.174 14.2852 173.967 14.2734 173.78 14.2734C173.303 14.2734 172.889 14.3359 172.537 14.4609C172.194 14.5781 171.905 14.7539 171.67 14.9883C171.444 15.2227 171.272 15.5078 171.155 15.8438C171.045 16.1797 170.983 16.5625 170.967 16.9922L170.287 16.7812C170.287 15.9609 170.369 15.207 170.533 14.5195C170.698 13.8242 170.936 13.2188 171.248 12.7031C171.569 12.1875 171.959 11.7891 172.42 11.5078C172.881 11.2266 173.408 11.0859 174.002 11.0859C174.19 11.0859 174.381 11.1016 174.576 11.1328C174.772 11.1562 174.932 11.1914 175.057 11.2383Z" fill="white"/>
</svg>
