<svg width="110" height="32" viewBox="0 0 110 32" fill="none" xmlns="http://www.w3.org/2000/svg">
<path d="M9.80555 19.9817V28.1025C9.80555 28.4138 9.68188 28.7124 9.46173 28.9324C9.2417 29.1526 8.94315 29.2762 8.6318 29.2762C8.32056 29.2762 8.02201 29.1526 7.80187 28.9324C7.58172 28.7124 7.45806 28.4138 7.45806 28.1025V19.993C7.78491 20.2317 8.17668 20.3649 8.58126 20.3749C9.02223 20.3874 9.45432 20.2487 9.80555 19.9817ZM19.802 17.6343C19.5042 17.6343 19.2184 17.7526 19.0078 17.9632C18.7972 18.1738 18.6788 18.4596 18.6788 18.7575V20.1727C18.6788 20.484 18.8025 20.7826 19.0226 21.0026C19.2427 21.2228 19.5412 21.3464 19.8526 21.3464C20.1639 21.3464 20.4625 21.2228 20.6825 21.0026C20.9027 20.7826 21.0263 20.484 21.0263 20.1727V18.8136C21.0351 18.6526 21.009 18.4915 20.9499 18.3414C20.8909 18.1914 20.8002 18.0557 20.684 17.9438C20.5678 17.8319 20.4289 17.7464 20.2768 17.6929C20.1246 17.6395 19.9627 17.6195 19.802 17.6343ZM4.90839 23.0593C4.50423 23.0472 4.11297 22.9142 3.78519 22.6774V30.8206C3.78519 31.1335 3.90944 31.4335 4.13062 31.6546C4.35179 31.8758 4.65176 32 4.96455 32C5.27734 32 5.57731 31.8758 5.79848 31.6546C6.01966 31.4335 6.14391 31.1335 6.14391 30.8206V22.7336C5.77713 22.9707 5.34437 23.0848 4.90839 23.0593ZM16.1404 15.1969C15.9882 15.1893 15.8361 15.2127 15.6933 15.2658C15.5505 15.3188 15.42 15.4003 15.3096 15.5053C15.1993 15.6105 15.1115 15.7368 15.0516 15.8769C14.9917 16.017 14.9608 16.1678 14.961 16.3201V22.5763C14.961 22.8892 15.0853 23.1892 15.3064 23.4103C15.5277 23.6315 15.8276 23.7557 16.1404 23.7557C16.4532 23.7557 16.7532 23.6315 16.9744 23.4103C17.1955 23.1892 17.3198 22.8892 17.3198 22.5763V16.3987C17.3287 16.2367 17.3025 16.0746 17.2427 15.9236C17.183 15.7727 17.0913 15.6364 16.9738 15.5243C16.8563 15.4122 16.716 15.3269 16.5625 15.2743C16.409 15.2216 16.2458 15.2029 16.0842 15.2194L16.1404 15.1969ZM12.4114 17.6006C11.9883 17.5976 11.5765 17.4643 11.232 17.2187V25.3843C11.232 25.6972 11.3562 25.9972 11.5774 26.2183C11.7987 26.4395 12.0986 26.5637 12.4114 26.5637C12.7242 26.5637 13.0241 26.4395 13.2453 26.2183C13.4665 25.9972 13.5907 25.6972 13.5907 25.3843V17.2299C13.2345 17.4953 12.7994 17.6337 12.3552 17.623L12.4114 17.6006ZM2.35872 23.8568V1.04458C2.35577 0.766506 2.24322 0.500847 2.04554 0.305264C1.84786 0.109681 1.581 -1.12311e-05 1.30291 8.625e-10H1.05581C0.777727 -1.12311e-05 0.510866 0.109681 0.313182 0.305264C0.115499 0.500847 0.00295402 0.766506 0 1.04458V23.8568C0 24.1368 0.111242 24.4054 0.30924 24.6034C0.507238 24.8014 0.775795 24.9126 1.05581 24.9126H1.30291C1.58294 24.9126 1.85148 24.8014 2.04948 24.6034C2.24749 24.4054 2.35872 24.1368 2.35872 23.8568ZM5.03194 22.1945H4.78484C4.50482 22.1945 4.23627 22.0833 4.03827 21.8852C3.84027 21.6872 3.72903 21.4187 3.72903 21.1386V3.76272C3.73199 3.48466 3.84453 3.21898 4.04221 3.02341C4.23989 2.82783 4.50675 2.71814 4.78484 2.71815H5.03194C5.31002 2.71814 5.57688 2.82783 5.77457 3.02341C5.97225 3.21898 6.0848 3.48466 6.08775 3.76272V21.1611C6.08775 21.4411 5.97651 21.7097 5.77851 21.9077C5.58051 22.1057 5.31195 22.2169 5.03194 22.2169V22.1945ZM8.74974 19.5212H8.4914C8.21442 19.5212 7.94867 19.4112 7.75278 19.2153C7.5569 19.0194 7.44682 18.7538 7.44682 18.4767V6.45841C7.44536 6.32029 7.47131 6.18325 7.52309 6.05521C7.57487 5.92718 7.65158 5.8107 7.74874 5.71251C7.8459 5.61432 7.96159 5.53637 8.08907 5.48318C8.21655 5.42998 8.35325 5.40259 8.4914 5.4026H8.74974C9.02784 5.40556 9.29348 5.5181 9.48903 5.71578C9.68469 5.91346 9.79431 6.18032 9.79431 6.45841V18.4767C9.79431 18.7538 9.68424 19.0194 9.48835 19.2153C9.29247 19.4112 9.02683 19.5212 8.74974 19.5212ZM12.4675 16.7694H12.2317C11.9536 16.7694 11.6867 16.6598 11.489 16.4641C11.2913 16.2686 11.1788 16.0029 11.1759 15.7248V9.25518C11.1666 9.11096 11.1871 8.9664 11.2361 8.83038C11.2849 8.69448 11.3613 8.56991 11.4602 8.46467C11.5592 8.35931 11.6787 8.27552 11.8115 8.21824C11.9441 8.16107 12.0871 8.13164 12.2317 8.13198H12.4788C12.7588 8.13198 13.0273 8.24317 13.2254 8.44119C13.4234 8.63921 13.5346 8.90777 13.5346 9.18779V15.7024C13.536 15.842 13.5099 15.9805 13.4574 16.1098C13.4051 16.2392 13.3276 16.357 13.2293 16.4562C13.1311 16.5554 13.0143 16.6342 12.8854 16.688C12.7565 16.7418 12.6184 16.7694 12.4788 16.7694H12.4675ZM16.1966 14.3545H15.9495C15.6694 14.3545 15.4009 14.2433 15.2029 14.0453C15.0048 13.8473 14.8936 13.5787 14.8936 13.2987V11.6251C14.8966 11.347 15.0091 11.0814 15.2068 10.8858C15.4045 10.6902 15.6714 10.5806 15.9495 10.5806H16.1966C16.4747 10.5806 16.7415 10.6902 16.9392 10.8858C17.1369 11.0814 17.2495 11.347 17.2524 11.6251V13.2987C17.2524 13.5768 17.1427 13.8437 16.9471 14.0414C16.7515 14.239 16.4859 14.3516 16.2078 14.3545H16.1966Z" fill="white"/>
<path d="M34.6647 21.293L38.0631 6.9375H39.9615L40.3951 9.32812L36.774 24H34.735L34.6647 21.293ZM32.9186 6.9375L35.7311 21.293L35.4967 24H33.2233L29.4381 6.9375H32.9186ZM43.3834 21.2344L46.1608 6.9375H49.6412L45.8678 24H43.5944L43.3834 21.2344ZM41.028 6.9375L44.4498 21.3516L44.3561 24H42.317L38.6725 9.31641L39.1412 6.9375H41.028ZM57.9733 9.85547L53.3326 24H49.5944L55.9342 6.9375H58.3131L57.9733 9.85547ZM61.8287 24L57.1764 9.85547L56.8014 6.9375H59.2037L65.5787 24H61.8287ZM61.6178 17.6484V20.4023H52.6061V17.6484H61.6178ZM72.3522 20.4375L76.3717 6.9375H80.2858L74.3444 24H71.7662L72.3522 20.4375ZM68.649 6.9375L72.6569 20.4375L73.2662 24H70.6647L64.7584 6.9375H68.649ZM93.3287 21.2578V24H84.2467V21.2578H93.3287ZM85.3951 6.9375V24H81.8795V6.9375H85.3951ZM92.1451 13.8867V16.5586H84.2467V13.8867H92.1451ZM93.317 6.9375V9.69141H84.2467V6.9375H93.317ZM104.262 19.5352C104.262 19.2305 104.215 18.957 104.122 18.7148C104.036 18.4648 103.872 18.2383 103.63 18.0352C103.387 17.8242 103.047 17.6172 102.61 17.4141C102.172 17.2109 101.606 17 100.911 16.7812C100.137 16.5312 99.403 16.25 98.7076 15.9375C98.0201 15.625 97.4108 15.2617 96.8795 14.8477C96.3561 14.4258 95.942 13.9375 95.6373 13.3828C95.3405 12.8281 95.192 12.1836 95.192 11.4492C95.192 10.7383 95.3483 10.0938 95.6608 9.51562C95.9733 8.92969 96.4108 8.42969 96.9733 8.01562C97.5358 7.59375 98.1998 7.26953 98.9655 7.04297C99.7389 6.81641 100.587 6.70312 101.508 6.70312C102.766 6.70312 103.864 6.92969 104.801 7.38281C105.739 7.83594 106.465 8.45703 106.981 9.24609C107.505 10.0352 107.766 10.9375 107.766 11.9531H104.274C104.274 11.4531 104.169 11.0156 103.958 10.6406C103.755 10.2578 103.442 9.95703 103.02 9.73828C102.606 9.51953 102.083 9.41016 101.45 9.41016C100.84 9.41016 100.333 9.50391 99.9264 9.69141C99.5201 9.87109 99.2155 10.1172 99.0123 10.4297C98.8092 10.7344 98.7076 11.0781 98.7076 11.4609C98.7076 11.75 98.778 12.0117 98.9186 12.2461C99.067 12.4805 99.2858 12.6992 99.5748 12.9023C99.8639 13.1055 100.219 13.2969 100.641 13.4766C101.063 13.6562 101.551 13.832 102.106 14.0039C103.036 14.2852 103.852 14.6016 104.555 14.9531C105.266 15.3047 105.86 15.6992 106.337 16.1367C106.813 16.5742 107.172 17.0703 107.415 17.625C107.657 18.1797 107.778 18.8086 107.778 19.5117C107.778 20.2539 107.633 20.918 107.344 21.5039C107.055 22.0898 106.637 22.5859 106.09 22.9922C105.544 23.3984 104.891 23.707 104.133 23.918C103.376 24.1289 102.528 24.2344 101.59 24.2344C100.747 24.2344 99.9147 24.125 99.0944 23.9062C98.274 23.6797 97.528 23.3398 96.8561 22.8867C96.192 22.4336 95.6608 21.8555 95.2623 21.1523C94.8639 20.4492 94.6647 19.6172 94.6647 18.6562H98.192C98.192 19.1875 98.274 19.6367 98.4381 20.0039C98.6022 20.3711 98.8326 20.668 99.1295 20.8945C99.4342 21.1211 99.7936 21.2852 100.208 21.3867C100.63 21.4883 101.09 21.5391 101.59 21.5391C102.2 21.5391 102.7 21.4531 103.09 21.2812C103.489 21.1094 103.782 20.8711 103.969 20.5664C104.165 20.2617 104.262 19.918 104.262 19.5352Z" fill="white"/>
</svg>
