<svg width="133" height="32" viewBox="0 0 133 32" fill="none" xmlns="http://www.w3.org/2000/svg">
<path fill-rule="evenodd" clip-rule="evenodd" d="M16 32C24.8366 32 32 24.8366 32 16C32 7.16347 24.8366 1.52588e-05 16 1.52588e-05C7.16343 1.52588e-05 0 7.16347 0 16C0 24.8366 7.16343 32 16 32ZM20.9915 7.45349C21.2344 6.59046 20.3969 6.08012 19.632 6.62506L8.9545 14.2317C8.12498 14.8226 8.25546 16 9.1505 16H11.9622V15.9782H17.442L12.977 17.5537L11.0086 24.5466C10.7656 25.4096 11.6031 25.9199 12.368 25.375L23.0455 17.7684C23.8751 17.1774 23.7445 16 22.8496 16H18.5857L20.9915 7.45349Z" fill="white"/>
<path d="M53.8633 21.2578V24H41.7695V21.2578H53.8633ZM53.6875 8.89453L43.3281 24H40.8555V21.9844L51.2969 6.9375H53.6875V8.89453ZM52.4805 6.9375V9.69141H40.8672V6.9375H52.4805ZM55.0938 17.7891V17.543C55.0938 16.6133 55.2266 15.7578 55.4922 14.9766C55.7578 14.1875 56.1445 13.5039 56.6523 12.9258C57.1602 12.3477 57.7852 11.8984 58.5273 11.5781C59.2695 11.25 60.1211 11.0859 61.082 11.0859C62.043 11.0859 62.8984 11.25 63.6484 11.5781C64.3984 11.8984 65.0273 12.3477 65.5352 12.9258C66.0508 13.5039 66.4414 14.1875 66.707 14.9766C66.9727 15.7578 67.1055 16.6133 67.1055 17.543V17.7891C67.1055 18.7109 66.9727 19.5664 66.707 20.3555C66.4414 21.1367 66.0508 21.8203 65.5352 22.4062C65.0273 22.9844 64.4023 23.4336 63.6602 23.7539C62.918 24.0742 62.0664 24.2344 61.1055 24.2344C60.1445 24.2344 59.2891 24.0742 58.5391 23.7539C57.7969 23.4336 57.168 22.9844 56.6523 22.4062C56.1445 21.8203 55.7578 21.1367 55.4922 20.3555C55.2266 19.5664 55.0938 18.7109 55.0938 17.7891ZM58.4688 17.543V17.7891C58.4688 18.3203 58.5156 18.8164 58.6094 19.2773C58.7031 19.7383 58.8516 20.1445 59.0547 20.4961C59.2656 20.8398 59.5391 21.1094 59.875 21.3047C60.2109 21.5 60.6211 21.5977 61.1055 21.5977C61.5742 21.5977 61.9766 21.5 62.3125 21.3047C62.6484 21.1094 62.918 20.8398 63.1211 20.4961C63.3242 20.1445 63.4727 19.7383 63.5664 19.2773C63.668 18.8164 63.7188 18.3203 63.7188 17.7891V17.543C63.7188 17.0273 63.668 16.543 63.5664 16.0898C63.4727 15.6289 63.3203 15.2227 63.1094 14.8711C62.9062 14.5117 62.6367 14.2305 62.3008 14.0273C61.9648 13.8242 61.5586 13.7227 61.082 13.7227C60.6055 13.7227 60.1992 13.8242 59.8633 14.0273C59.5352 14.2305 59.2656 14.5117 59.0547 14.8711C58.8516 15.2227 58.7031 15.6289 58.6094 16.0898C58.5156 16.543 58.4688 17.0273 58.4688 17.543ZM68.6406 17.7891V17.543C68.6406 16.6133 68.7734 15.7578 69.0391 14.9766C69.3047 14.1875 69.6914 13.5039 70.1992 12.9258C70.707 12.3477 71.332 11.8984 72.0742 11.5781C72.8164 11.25 73.668 11.0859 74.6289 11.0859C75.5898 11.0859 76.4453 11.25 77.1953 11.5781C77.9453 11.8984 78.5742 12.3477 79.082 12.9258C79.5977 13.5039 79.9883 14.1875 80.2539 14.9766C80.5195 15.7578 80.6523 16.6133 80.6523 17.543V17.7891C80.6523 18.7109 80.5195 19.5664 80.2539 20.3555C79.9883 21.1367 79.5977 21.8203 79.082 22.4062C78.5742 22.9844 77.9492 23.4336 77.207 23.7539C76.4648 24.0742 75.6133 24.2344 74.6523 24.2344C73.6914 24.2344 72.8359 24.0742 72.0859 23.7539C71.3438 23.4336 70.7148 22.9844 70.1992 22.4062C69.6914 21.8203 69.3047 21.1367 69.0391 20.3555C68.7734 19.5664 68.6406 18.7109 68.6406 17.7891ZM72.0156 17.543V17.7891C72.0156 18.3203 72.0625 18.8164 72.1562 19.2773C72.25 19.7383 72.3984 20.1445 72.6016 20.4961C72.8125 20.8398 73.0859 21.1094 73.4219 21.3047C73.7578 21.5 74.168 21.5977 74.6523 21.5977C75.1211 21.5977 75.5234 21.5 75.8594 21.3047C76.1953 21.1094 76.4648 20.8398 76.668 20.4961C76.8711 20.1445 77.0195 19.7383 77.1133 19.2773C77.2148 18.8164 77.2656 18.3203 77.2656 17.7891V17.543C77.2656 17.0273 77.2148 16.543 77.1133 16.0898C77.0195 15.6289 76.8672 15.2227 76.6562 14.8711C76.4531 14.5117 76.1836 14.2305 75.8477 14.0273C75.5117 13.8242 75.1055 13.7227 74.6289 13.7227C74.1523 13.7227 73.7461 13.8242 73.4102 14.0273C73.082 14.2305 72.8125 14.5117 72.6016 14.8711C72.3984 15.2227 72.25 15.6289 72.1562 16.0898C72.0625 16.543 72.0156 17.0273 72.0156 17.543ZM86.1016 13.9453V24H82.7148V11.3203H85.8906L86.1016 13.9453ZM85.6328 17.2148H84.6953C84.6953 16.332 84.8008 15.5195 85.0117 14.7773C85.2305 14.0273 85.5469 13.3789 85.9609 12.832C86.3828 12.2773 86.9023 11.8477 87.5195 11.543C88.1367 11.2383 88.8516 11.0859 89.6641 11.0859C90.2266 11.0859 90.7422 11.1719 91.2109 11.3438C91.6797 11.5078 92.082 11.7695 92.418 12.1289C92.7617 12.4805 93.0273 12.9414 93.2148 13.5117C93.4023 14.0742 93.4961 14.75 93.4961 15.5391V24H90.1211V15.9141C90.1211 15.3359 90.043 14.8906 89.8867 14.5781C89.7305 14.2656 89.5078 14.0469 89.2188 13.9219C88.9375 13.7969 88.5977 13.7344 88.1992 13.7344C87.7617 13.7344 87.3789 13.8242 87.0508 14.0039C86.7305 14.1836 86.4648 14.4336 86.2539 14.7539C86.043 15.0664 85.8867 15.4336 85.7852 15.8555C85.6836 16.2773 85.6328 16.7305 85.6328 17.2148ZM93.1797 16.8281L91.9727 16.9805C91.9727 16.1523 92.0742 15.3828 92.2773 14.6719C92.4883 13.9609 92.7969 13.3359 93.2031 12.7969C93.6172 12.2578 94.1289 11.8398 94.7383 11.543C95.3477 11.2383 96.0508 11.0859 96.8477 11.0859C97.457 11.0859 98.0117 11.1758 98.5117 11.3555C99.0117 11.5273 99.4375 11.8047 99.7891 12.1875C100.148 12.5625 100.422 13.0547 100.609 13.6641C100.805 14.2734 100.902 15.0195 100.902 15.9023V24H97.5156V15.9023C97.5156 15.3164 97.4375 14.8711 97.2812 14.5664C97.1328 14.2539 96.9141 14.0391 96.625 13.9219C96.3438 13.7969 96.0078 13.7344 95.6172 13.7344C95.2109 13.7344 94.8555 13.8164 94.5508 13.9805C94.2461 14.1367 93.9922 14.3555 93.7891 14.6367C93.5859 14.918 93.4336 15.2461 93.332 15.6211C93.2305 15.9883 93.1797 16.3906 93.1797 16.8281ZM109.352 24.2344C108.367 24.2344 107.484 24.0781 106.703 23.7656C105.922 23.4453 105.258 23.0039 104.711 22.4414C104.172 21.8789 103.758 21.2266 103.469 20.4844C103.18 19.7344 103.035 18.9375 103.035 18.0938V17.625C103.035 16.6641 103.172 15.7852 103.445 14.9883C103.719 14.1914 104.109 13.5 104.617 12.9141C105.133 12.3281 105.758 11.8789 106.492 11.5664C107.227 11.2461 108.055 11.0859 108.977 11.0859C109.875 11.0859 110.672 11.2344 111.367 11.5312C112.062 11.8281 112.645 12.25 113.113 12.7969C113.59 13.3438 113.949 14 114.191 14.7656C114.434 15.5234 114.555 16.3672 114.555 17.2969V18.7031H104.477V16.4531H111.238V16.1953C111.238 15.7266 111.152 15.3086 110.98 14.9414C110.816 14.5664 110.566 14.2695 110.23 14.0508C109.895 13.832 109.465 13.7227 108.941 13.7227C108.496 13.7227 108.113 13.8203 107.793 14.0156C107.473 14.2109 107.211 14.4844 107.008 14.8359C106.812 15.1875 106.664 15.6016 106.562 16.0781C106.469 16.5469 106.422 17.0625 106.422 17.625V18.0938C106.422 18.6016 106.492 19.0703 106.633 19.5C106.781 19.9297 106.988 20.3008 107.254 20.6133C107.527 20.9258 107.855 21.168 108.238 21.3398C108.629 21.5117 109.07 21.5977 109.562 21.5977C110.172 21.5977 110.738 21.4805 111.262 21.2461C111.793 21.0039 112.25 20.6406 112.633 20.1562L114.273 21.9375C114.008 22.3203 113.645 22.6875 113.184 23.0391C112.73 23.3906 112.184 23.6797 111.543 23.9062C110.902 24.125 110.172 24.2344 109.352 24.2344ZM119.852 14.0859V24H116.477V11.3203H119.652L119.852 14.0859ZM123.672 11.2383L123.613 14.3672C123.449 14.3438 123.25 14.3242 123.016 14.3086C122.789 14.2852 122.582 14.2734 122.395 14.2734C121.918 14.2734 121.504 14.3359 121.152 14.4609C120.809 14.5781 120.52 14.7539 120.285 14.9883C120.059 15.2227 119.887 15.5078 119.77 15.8438C119.66 16.1797 119.598 16.5625 119.582 16.9922L118.902 16.7812C118.902 15.9609 118.984 15.207 119.148 14.5195C119.312 13.8242 119.551 13.2188 119.863 12.7031C120.184 12.1875 120.574 11.7891 121.035 11.5078C121.496 11.2266 122.023 11.0859 122.617 11.0859C122.805 11.0859 122.996 11.1016 123.191 11.1328C123.387 11.1562 123.547 11.1914 123.672 11.2383ZM128.641 14.0859V24H125.266V11.3203H128.441L128.641 14.0859ZM132.461 11.2383L132.402 14.3672C132.238 14.3438 132.039 14.3242 131.805 14.3086C131.578 14.2852 131.371 14.2734 131.184 14.2734C130.707 14.2734 130.293 14.3359 129.941 14.4609C129.598 14.5781 129.309 14.7539 129.074 14.9883C128.848 15.2227 128.676 15.5078 128.559 15.8438C128.449 16.1797 128.387 16.5625 128.371 16.9922L127.691 16.7812C127.691 15.9609 127.773 15.207 127.938 14.5195C128.102 13.8242 128.34 13.2188 128.652 12.7031C128.973 12.1875 129.363 11.7891 129.824 11.5078C130.285 11.2266 130.812 11.0859 131.406 11.0859C131.594 11.0859 131.785 11.1016 131.98 11.1328C132.176 11.1562 132.336 11.1914 132.461 11.2383Z" fill="white"/>
</svg>
